<svg width="120" height="120" viewBox="0 0 120 120" fill="none" xmlns="http://www.w3.org/2000/svg">
<g id="Frame">
<path id="Star" d="M27 100L28.5839 105.416L34 107L28.5839 108.584L27 114L25.4161 108.584L20 107L25.4161 105.416L27 100Z" fill="#FA7179"/>
<path id="Star_2" d="M11 86L12.1314 89.8686L16 91L12.1314 92.1314L11 96L9.86863 92.1314L6 91L9.86863 89.8686L11 86Z" fill="#ED4649"/>
<rect id="Rectangle" x="20" y="20" width="80" height="80" rx="24" fill="#ED4650"/>
<path id="Vector" fill-rule="evenodd" clip-rule="evenodd" d="M75.3302 47.732C75.7591 48.2008 76 48.8366 76 49.4996C76 50.1625 75.7591 50.7983 75.3302 51.2671L57.0281 71.268C56.5991 71.7367 56.0173 72 55.4107 72C54.804 72 54.2222 71.7367 53.7932 71.268L44.6422 61.2676C44.2255 60.796 43.9949 60.1645 44.0001 59.509C44.0053 58.8535 44.2459 58.2264 44.6701 57.7629C45.0942 57.2993 45.668 57.0364 46.2679 57.0307C46.8677 57.025 47.4456 57.277 47.8771 57.7324L55.4107 65.9653L72.0953 47.732C72.5243 47.2633 73.1061 47 73.7127 47C74.3194 47 74.9012 47.2633 75.3302 47.732Z" fill="white"/>
<path id="Star_3" d="M101 11L102.81 17.1898L109 19L102.81 20.8102L101 27L99.1898 20.8102L93 19L99.1898 17.1898L101 11Z" fill="#ED4650"/>
</g>
</svg>
