<svg width="303" height="203" viewBox="0 0 303 203" fill="none" xmlns="http://www.w3.org/2000/svg">
<path d="M299.941 153.636H268.205C270.524 144.175 271.751 134.284 271.751 124.108C271.751 103.882 266.895 84.79 258.286 67.9325H280.79C282.085 67.9325 283.135 66.8824 283.135 65.5878C283.135 64.2933 282.085 63.2432 280.79 63.2432H255.761C234.52 25.7474 194.26 0.44043 148.089 0.44043C117.38 0.44043 89.2829 11.6359 67.6614 30.1689H29.5814C28.2868 30.1689 27.2367 31.219 27.2367 32.5136C27.2367 33.8081 28.2868 34.8582 29.5814 34.8582H62.4935C59.8658 37.3804 57.3487 40.0158 54.9501 42.7594H2.79969C1.50513 42.7594 0.455078 43.8094 0.455078 45.104C0.455078 46.3985 1.50513 47.4486 2.79969 47.4486H51.0509C34.3787 68.5218 24.4263 95.1542 24.4263 124.111C24.4263 140.314 27.5456 155.793 33.2128 169.973H27.0386C25.744 169.973 24.6939 171.024 24.6939 172.318C24.6939 173.613 25.744 174.663 27.0386 174.663H35.1997C36.0516 176.562 36.9524 178.438 37.8943 180.286H10.1656C8.871 180.286 7.82093 181.336 7.82093 182.631C7.82093 183.925 8.871 184.975 10.1656 184.975H40.4165C43.3068 190.076 46.5496 194.954 50.109 199.571H246.069C252.727 190.941 258.265 181.406 262.478 171.183H285.479C286.774 171.183 287.824 170.133 287.824 168.839C287.824 167.544 286.774 166.494 285.479 166.494H264.298C265.276 163.812 266.164 161.089 266.959 158.325H299.941C301.235 158.325 302.285 157.275 302.285 155.98C302.285 154.686 301.235 153.636 299.941 153.636Z" fill="#FAF9F9"/>
<path d="M200.064 199.558H185.083C185.083 198.477 185.961 197.6 187.042 197.6H198.106C199.187 197.6 200.064 198.477 200.064 199.558Z" fill="#F2F2F2"/>
<path d="M196.515 197.6H188.632L191.193 124.574L192.914 125.719L196.515 197.6Z" fill="#F2F2F2"/>
<path d="M198.95 199.558H183.969C183.969 198.477 184.846 197.6 185.927 197.6H196.992C198.072 197.6 198.95 198.477 198.95 199.558Z" fill="#F2F2F2"/>
<path d="M191.458 125.22L229.155 146.983L228.743 144.839C228.66 144.417 228.429 144.039 228.089 143.774L203.462 124.711C203.011 124.361 202.419 124.252 201.874 124.415L196.932 125.892C196.466 126.031 195.965 125.972 195.542 125.73L192.258 123.833L191.458 125.218V125.22Z" fill="#F2F2F2"/>
<path d="M190.658 123.836L152.961 145.599L155.02 146.311C155.429 146.453 155.874 146.44 156.276 146.278L185.091 134.485C185.621 134.269 186.015 133.809 186.146 133.25L187.335 128.242C187.448 127.766 187.752 127.356 188.177 127.112L191.455 125.218L190.655 123.833L190.658 123.836Z" fill="#F2F2F2"/>
<path d="M192.255 123.835V80.3066L190.608 81.7324C190.281 82.0155 190.07 82.4067 190.011 82.834L185.816 113.69C185.739 114.256 185.94 114.825 186.357 115.219L190.101 118.755C190.456 119.089 190.657 119.555 190.657 120.044V123.833H192.255V123.835Z" fill="#F2F2F2"/>
<path d="M195.076 197.6H187.842L190.403 124.574H192.513L195.076 197.6Z" fill="#F2F2F2"/>
<path d="M191.458 126.427C192.481 126.427 193.311 125.597 193.311 124.574C193.311 123.55 192.481 122.721 191.458 122.721C190.434 122.721 189.604 123.55 189.604 124.574C189.604 125.597 190.434 126.427 191.458 126.427Z" fill="#F2F2F2"/>
<path d="M191.979 126.027C192.842 125.67 193.252 124.681 192.895 123.818C192.537 122.955 191.548 122.545 190.685 122.903C189.822 123.26 189.413 124.249 189.77 125.112C190.128 125.975 191.117 126.384 191.979 126.027Z" fill="#F2F2F2"/>
<path d="M153.63 145.83L189.644 124.466L189.61 124.44L152.964 145.599L153.63 145.83Z" fill="#F2F2F2"/>
<path d="M195.077 197.126H187.857V197.6H195.077V197.126Z" fill="#F2F2F2"/>
<path d="M191.723 80.7699L192.219 122.937L192.255 122.922V80.3066L191.723 80.7699Z" fill="#F2F2F2"/>
<path d="M229.021 146.288L192.513 125.783L192.508 125.824L229.154 146.983L229.021 146.288Z" fill="#F2F2F2"/>
<path d="M249.283 199.558H225.299C225.299 197.825 226.701 196.423 228.434 196.423H246.148C247.88 196.423 249.283 197.825 249.283 199.558Z" fill="#ECECEC"/>
<path d="M243.6 196.422H230.979L235.081 79.5107L237.837 81.3406L243.6 196.422Z" fill="#ECECEC"/>
<path d="M247.496 199.557H223.512C223.512 197.825 224.914 196.422 226.646 196.422H244.361C246.093 196.422 247.496 197.825 247.496 199.557Z" fill="#F2F2F2"/>
<path d="M235.505 80.5417L295.855 115.384L295.119 111.56C295.037 111.138 294.805 110.757 294.465 110.494L254.29 79.3939C253.84 79.0439 253.248 78.9332 252.7 79.0979L243.828 81.7488C243.362 81.8878 242.858 81.8286 242.436 81.5867L236.784 78.3232L235.505 80.5417Z" fill="#F2F2F2"/>
<path d="M234.223 78.3258L173.873 113.168L177.551 114.442C177.957 114.584 178.403 114.571 178.802 114.409L226.664 94.8205L229.192 84.1861L235.505 80.5417L234.226 78.3232L234.223 78.3258Z" fill="#F2F2F2"/>
<path d="M236.781 78.3261V8.63867L233.84 11.1866C233.513 11.4697 233.302 11.8609 233.242 12.2882L226.399 62.6266C226.322 63.1929 226.523 63.7617 226.94 64.1554L233.667 70.5098C234.022 70.8444 234.223 71.3102 234.223 71.7992V78.3261H236.784H236.781Z" fill="#F2F2F2"/>
<path d="M241.296 196.422H229.712L233.814 79.5098H237.194L241.296 196.422Z" fill="#F2F2F2"/>
<path d="M236.642 82.2509C238.156 81.6237 238.875 79.8878 238.248 78.3737C237.62 76.8596 235.885 76.1406 234.37 76.7677C232.856 77.3949 232.137 79.1308 232.765 80.6449C233.392 82.159 235.128 82.878 236.642 82.2509Z" fill="#ECECEC"/>
<path d="M237.989 79.7925C238.229 78.3179 237.227 76.9285 235.753 76.6891C234.278 76.4498 232.889 77.4511 232.649 78.9257C232.41 80.4003 233.411 81.7897 234.886 82.0291C236.36 82.2685 237.75 81.2671 237.989 79.7925Z" fill="#F2F2F2"/>
<path d="M174.945 113.54L232.598 79.3361L232.546 79.2949L173.874 113.17L174.945 113.54Z" fill="#ECECEC"/>
<path d="M241.3 195.66H229.741V196.419H241.3V195.66Z" fill="#ECECEC"/>
<path d="M235.931 9.38087L236.723 76.8884L236.783 76.8626V8.63965L235.931 9.38087Z" fill="#ECECEC"/>
<path d="M295.642 114.276L237.191 81.4492L237.184 81.5136L295.856 115.388L295.642 114.276Z" fill="#ECECEC"/>
<path d="M71.223 96.5898C71.223 88.8346 64.9367 82.5479 57.1823 82.5479C49.4278 82.5479 43.1416 88.8346 43.1416 96.5898V128.91C43.1416 136.665 49.4278 142.952 57.1823 142.952C64.9367 142.952 71.223 136.665 71.223 128.91V96.5898Z" fill="#F2F2F2"/>
<path d="M57.9503 199.627H56.4189V105.006C56.4189 104.584 56.7612 104.239 57.1859 104.239C57.608 104.239 57.9529 104.582 57.9529 105.006V199.627H57.9503Z" fill="#E4E4E3"/>
<path d="M57.9505 117.83L53.6911 110.451C53.48 110.086 53.0116 109.96 52.6436 110.171C52.2781 110.382 52.152 110.85 52.363 111.218L56.6225 118.597L57.9505 117.83Z" fill="#E4E4E3"/>
<path d="M57.745 126.655L62.0044 119.277C62.2155 118.911 62.0894 118.443 61.7239 118.229C61.3584 118.018 60.89 118.144 60.6764 118.51L56.417 125.889L57.745 126.655Z" fill="#E4E4E3"/>
<path d="M110.871 68.6995C110.871 58.8521 102.888 50.8691 93.0404 50.8691C83.1929 50.8691 75.21 58.8521 75.21 68.6995V109.742C75.21 119.589 83.1929 127.572 93.0404 127.572C102.888 127.572 110.871 119.589 110.871 109.742V68.6995Z" fill="#F2F2F2"/>
<path d="M94.0131 199.542H92.0674V79.3879C92.0674 78.85 92.5023 78.415 93.0402 78.415C93.5781 78.415 94.0131 78.85 94.0131 79.3879V199.542Z" fill="#E4E4E3"/>
<path d="M94.0137 95.6742L88.6038 86.3061C88.3361 85.8402 87.739 85.6807 87.2758 85.9509C86.81 86.2186 86.6504 86.8157 86.9206 87.2789L92.3305 96.6471L94.0162 95.6742H94.0137Z" fill="#E4E4E3"/>
<path d="M93.7506 106.88L99.1604 97.5116C99.4281 97.0458 99.2685 96.4512 98.8053 96.1836C98.3394 95.9159 97.7449 96.0755 97.4773 96.5387L92.0674 105.907L93.7532 106.88H93.7506Z" fill="#E4E4E3"/>
<path d="M65.8443 194.318C66.6627 193.548 67.0359 192.671 66.7142 192.053C66.3153 191.289 64.9795 191.17 63.5512 191.708C63.6232 191.523 63.6927 191.33 63.7545 191.134C64.5137 188.707 64.0813 186.409 62.7842 186.005C61.5205 185.608 59.9068 187.158 59.1219 189.484C58.4707 186.818 56.803 184.939 55.372 185.276C54.0234 185.593 53.3645 187.763 53.7969 190.249C51.8229 189.376 49.9184 189.446 49.311 190.498C48.683 191.587 49.661 193.353 51.5269 194.642C50.6442 194.938 50.0342 195.481 49.9519 196.161C49.8489 196.994 50.5644 197.818 51.6994 198.328C51.6376 198.49 51.6196 198.652 51.6556 198.809C51.774 199.313 52.4123 199.622 53.2462 199.656L53.3697 199.658C53.3723 199.658 53.3774 199.658 53.38 199.658H63.9115V199.648C64.1174 199.622 64.2692 199.535 64.3233 199.396C64.3593 199.303 64.3438 199.197 64.2898 199.092C64.8431 199.038 65.2601 198.819 65.3991 198.454C65.5046 198.168 65.4248 197.839 65.2034 197.517C66.6447 197.422 67.7488 196.788 67.7848 195.978C67.8157 195.265 67.0102 194.616 65.8443 194.323V194.318Z" fill="#E4E4E3"/>
<path d="M88.0167 189.839C89.5223 188.424 90.2094 186.81 89.6149 185.675C88.8814 184.267 86.4236 184.054 83.801 185.042C83.9348 184.7 84.0584 184.347 84.1742 183.987C85.5717 179.521 84.7738 175.298 82.3906 174.552C80.0666 173.823 77.0966 176.67 75.6528 180.95C74.456 176.047 71.3882 172.59 68.7553 173.208C66.2769 173.79 65.0621 177.782 65.8599 182.352C62.2285 180.749 58.7257 180.878 57.6113 182.811C56.4557 184.813 58.2547 188.061 61.6854 190.429C60.0589 190.974 58.9419 191.97 58.79 193.221C58.6022 194.755 59.9173 196.271 62.0071 197.205C61.8913 197.504 61.8604 197.802 61.9274 198.093C62.1461 199.02 63.3171 199.591 64.851 199.65V199.655H65.0801C65.0801 199.655 65.093 199.655 65.0981 199.655H84.4676V199.637C84.8459 199.588 85.1264 199.429 85.2242 199.171C85.2886 199.001 85.2603 198.808 85.1599 198.613C86.1791 198.515 86.946 198.111 87.1983 197.437C87.3939 196.912 87.2472 196.307 86.8405 195.712C89.4888 195.535 91.5246 194.374 91.5889 192.881C91.6456 191.569 90.1631 190.38 88.0193 189.837L88.0167 189.839Z" fill="#F2F2F2"/>
<path d="M219.886 190.851C218.545 189.593 217.933 188.154 218.463 187.142C219.117 185.889 221.304 185.699 223.641 186.579C223.523 186.275 223.412 185.961 223.309 185.64C222.064 181.663 222.777 177.903 224.897 177.239C226.967 176.59 229.61 179.126 230.897 182.935C231.962 178.57 234.695 175.492 237.037 176.042C239.243 176.562 240.324 180.114 239.616 184.185C242.849 182.757 245.968 182.873 246.961 184.592C247.991 186.373 246.387 189.268 243.335 191.376C244.781 191.863 245.778 192.748 245.914 193.862C246.081 195.229 244.91 196.578 243.049 197.409C243.152 197.674 243.181 197.942 243.119 198.199C242.926 199.023 241.881 199.532 240.514 199.586V199.591H240.311C240.311 199.591 240.301 199.591 240.296 199.591H223.049V199.576C222.712 199.532 222.463 199.391 222.378 199.162C222.321 199.01 222.344 198.837 222.434 198.665C221.526 198.577 220.844 198.217 220.62 197.617C220.445 197.152 220.576 196.611 220.939 196.081C218.582 195.924 216.77 194.889 216.71 193.561C216.659 192.393 217.982 191.332 219.889 190.849L219.886 190.851Z" fill="#EAEAEA"/>
<path d="M239.82 196.07C239.279 195.561 239.03 194.982 239.243 194.572C239.508 194.065 240.391 193.988 241.336 194.346C241.287 194.222 241.243 194.096 241.202 193.965C240.7 192.359 240.986 190.838 241.843 190.57C242.679 190.308 243.747 191.332 244.267 192.871C244.697 191.108 245.801 189.863 246.748 190.087C247.638 190.295 248.076 191.731 247.79 193.376C249.098 192.799 250.356 192.846 250.758 193.54C251.175 194.261 250.526 195.429 249.293 196.281C249.878 196.477 250.282 196.835 250.336 197.285C250.403 197.838 249.929 198.381 249.178 198.719C249.219 198.827 249.229 198.935 249.206 199.038C249.129 199.37 248.707 199.576 248.153 199.599H248.071H248.066H241.096V199.594C240.96 199.576 240.859 199.519 240.823 199.426C240.8 199.365 240.811 199.295 240.847 199.226C240.478 199.19 240.203 199.045 240.113 198.804C240.044 198.616 240.095 198.397 240.242 198.183C239.289 198.119 238.556 197.702 238.533 197.164C238.512 196.691 239.045 196.263 239.817 196.068L239.82 196.07Z" fill="#E4E4E3"/>
<path d="M154.891 191.356C153.627 190.169 153.051 188.813 153.548 187.861C154.165 186.679 156.227 186.499 158.427 187.331C158.314 187.045 158.211 186.749 158.116 186.443C156.942 182.695 157.611 179.149 159.614 178.523C161.565 177.913 164.056 180.302 165.268 183.892C166.272 179.777 168.848 176.876 171.056 177.396C173.136 177.885 174.155 181.234 173.486 185.071C176.533 183.725 179.472 183.833 180.409 185.454C181.379 187.135 179.869 189.86 176.991 191.847C178.355 192.305 179.295 193.142 179.423 194.189C179.58 195.479 178.476 196.748 176.724 197.533C176.821 197.782 176.847 198.034 176.79 198.276C176.608 199.054 175.625 199.532 174.335 199.584V199.589H174.145C174.145 199.589 174.134 199.589 174.129 199.589H157.871V199.576C157.555 199.535 157.318 199.401 157.238 199.185C157.184 199.041 157.207 198.879 157.292 198.716C156.438 198.634 155.792 198.294 155.581 197.731C155.416 197.291 155.54 196.781 155.882 196.284C153.658 196.135 151.952 195.162 151.898 193.909C151.849 192.807 153.095 191.809 154.894 191.353L154.891 191.356Z" fill="#F2F2F2"/>
<path d="M173.172 194.928C172.456 194.256 172.13 193.489 172.413 192.948C172.763 192.279 173.931 192.176 175.177 192.647C175.113 192.485 175.053 192.318 174.999 192.145C174.335 190.022 174.714 188.015 175.846 187.659C176.95 187.315 178.363 188.666 179.048 190.702C179.616 188.37 181.076 186.728 182.327 187.021C183.505 187.299 184.082 189.196 183.703 191.368C185.43 190.606 187.096 190.666 187.626 191.587C188.174 192.539 187.319 194.083 185.69 195.208C186.462 195.468 186.995 195.942 187.067 196.536C187.157 197.267 186.532 197.985 185.538 198.43C185.593 198.572 185.608 198.713 185.575 198.852C185.472 199.292 184.913 199.565 184.185 199.594H184.077C184.074 199.594 184.071 199.594 184.069 199.594H174.86V199.586C174.68 199.563 174.546 199.486 174.5 199.365C174.469 199.282 174.482 199.192 174.531 199.099C174.047 199.053 173.682 198.86 173.561 198.541C173.468 198.291 173.537 198.003 173.73 197.723C172.472 197.638 171.504 197.087 171.473 196.377C171.448 195.751 172.153 195.187 173.169 194.93L173.172 194.928Z" fill="#E4E4E3"/>
<path d="M211.43 76.9424C211.314 76.9424 211.203 76.9604 211.1 76.9913C211.105 76.9373 211.105 76.8807 211.105 76.824C211.105 75.5398 210.065 74.5 208.781 74.5C207.716 74.5 206.82 75.2155 206.545 76.1935C206.413 76.1574 206.277 76.1369 206.135 76.1369C205.304 76.1369 204.63 76.8111 204.63 77.6424C204.63 78.4737 205.304 79.1481 206.135 79.1481C206.161 79.1481 206.187 79.1481 206.215 79.1481H211.43C212.039 79.1481 212.534 78.6539 212.534 78.044C212.534 77.434 212.039 76.9398 211.43 76.9398V76.9424Z" fill="#F2F2F2"/>
<path d="M148.886 55.8259C148.479 55.8259 148.096 55.9392 147.772 56.1348C147.435 54.6755 146.127 53.5868 144.565 53.5868C144.428 53.5868 144.292 53.5971 144.158 53.6126C143.43 51.9912 141.801 50.8613 139.909 50.8613C137.338 50.8613 135.253 52.946 135.253 55.5171C135.253 55.5454 135.253 55.5712 135.253 55.5995C134.942 55.4528 134.594 55.3704 134.226 55.3704C132.901 55.3704 131.825 56.4462 131.825 57.7716C131.825 59.0971 132.901 60.1729 134.226 60.1729H148.883C150.083 60.1729 151.056 59.2 151.056 58.0007C151.056 56.8014 150.083 55.8285 148.883 55.8285L148.886 55.8259Z" fill="#F2F2F2"/>
<path d="M103.029 143.269C103.443 143.269 103.829 143.382 104.159 143.58C104.501 142.1 105.824 140.999 107.409 140.999C107.548 140.999 107.685 141.009 107.821 141.025C108.557 139.38 110.21 138.237 112.127 138.237C114.731 138.237 116.844 140.35 116.844 142.955C116.844 142.983 116.844 143.011 116.844 143.037C117.161 142.888 117.511 142.803 117.884 142.803C119.228 142.803 120.319 143.892 120.319 145.238C120.319 146.584 119.23 147.672 117.884 147.672H103.032C101.817 147.672 100.831 146.687 100.831 145.472C100.831 144.257 101.817 143.271 103.032 143.271L103.029 143.269Z" fill="#F2F2F2"/>
<path d="M255.179 186.414L255.143 186.548C255.141 186.563 255.048 186.908 254.821 187.333C254.613 187.729 254.242 188.272 253.668 188.609C253.095 188.947 252.441 189.008 251.993 189.001C251.512 188.993 251.164 188.905 251.151 188.903L251.018 188.869L251.054 188.736C251.056 188.72 251.149 188.375 251.375 187.951C251.584 187.554 251.954 187.011 252.528 186.674C253.102 186.337 253.756 186.275 254.204 186.283C254.685 186.291 255.032 186.378 255.045 186.381L255.179 186.414ZM251.36 188.666C251.725 188.73 252.729 188.846 253.529 188.373C254.332 187.899 254.713 186.967 254.834 186.615C254.469 186.551 253.465 186.435 252.665 186.908C251.862 187.382 251.481 188.313 251.36 188.666Z" fill="#E4E4E3"/>
<path d="M253.267 189.619C251.993 190.1 250.572 189.462 250.572 189.462C250.572 189.462 251.218 188.046 252.492 187.567C253.766 187.086 255.187 187.724 255.187 187.724C255.187 187.724 254.541 189.14 253.267 189.619Z" fill="#F2F2F2"/>
<path d="M250.542 171.104V171.276C250.542 171.294 250.534 171.739 250.39 172.321C250.256 172.861 249.976 173.631 249.386 174.212C248.797 174.794 248.025 175.067 247.482 175.193C246.897 175.329 246.455 175.329 246.434 175.329H246.262V175.157C246.262 175.139 246.267 174.694 246.411 174.112C246.545 173.572 246.825 172.802 247.415 172.22C248.004 171.639 248.776 171.366 249.319 171.24C249.903 171.103 250.346 171.104 250.367 171.104H250.539H250.542ZM246.617 174.979C247.078 174.946 248.323 174.781 249.147 173.971C249.973 173.155 250.151 171.914 250.189 171.454C249.728 171.487 248.483 171.652 247.659 172.462C246.833 173.278 246.655 174.519 246.617 174.979Z" fill="#E4E4E3"/>
<path d="M249.203 175.548C247.811 176.513 245.906 176.176 245.906 176.176C245.906 176.176 246.256 174.274 247.649 173.306C249.041 172.341 250.945 172.678 250.945 172.678C250.945 172.678 250.595 174.58 249.203 175.548Z" fill="#F2F2F2"/>
<path d="M73.8043 166.61L73.9125 166.703C73.9125 166.703 74.2033 166.955 74.4992 167.357C74.7746 167.733 75.1118 168.322 75.1684 169.012C75.225 169.699 74.9857 170.337 74.7746 170.751C74.5481 171.197 74.3114 171.48 74.3011 171.493L74.2084 171.601L74.1003 171.508C74.1003 171.508 73.8095 171.256 73.5135 170.854C73.2381 170.479 72.901 169.889 72.8444 169.199C72.7877 168.51 73.0271 167.874 73.2381 167.46C73.4646 167.014 73.7014 166.731 73.7117 166.718L73.8043 166.61ZM74.1775 171.192C74.404 170.88 74.9651 169.997 74.8853 169.035C74.8055 168.072 74.1106 167.292 73.8352 167.022C73.6087 167.334 73.0477 168.216 73.1275 169.179C73.2073 170.141 73.9021 170.921 74.1775 171.192Z" fill="#E4E4E3"/>
<path d="M75.9277 169.843C75.799 171.248 74.5637 172.285 74.5637 172.285C74.5637 172.285 73.5368 171.042 73.6655 169.637C73.7941 168.232 75.0295 167.194 75.0295 167.194C75.0295 167.194 76.0564 168.437 75.9277 169.843Z" fill="#F2F2F2"/>
<path d="M46.709 182.849L46.8299 182.842C46.8428 182.842 47.1542 182.821 47.5686 182.891C47.9546 182.955 48.5054 183.112 48.9429 183.493C49.3805 183.874 49.6121 184.399 49.7279 184.769C49.854 185.171 49.8772 185.48 49.8772 185.493L49.8849 185.614L49.7639 185.621C49.7511 185.621 49.4397 185.642 49.0253 185.572C48.6392 185.508 48.0885 185.351 47.6509 184.97C47.2134 184.589 46.9818 184.064 46.866 183.694C46.7399 183.292 46.7167 182.983 46.7167 182.97L46.709 182.849ZM49.6224 185.385C49.5761 185.063 49.3933 184.203 48.7834 183.67C48.1708 183.138 47.2932 183.079 46.9715 183.076C47.0178 183.398 47.2005 184.257 47.8105 184.79C48.423 185.323 49.3007 185.382 49.6224 185.385Z" fill="#E4E4E3"/>
<path d="M49.885 183.547C50.6339 184.468 50.4975 185.817 50.4975 185.817C50.4975 185.817 49.1489 185.673 48.4025 184.751C47.6536 183.83 47.79 182.481 47.79 182.481C47.79 182.481 49.1386 182.626 49.885 183.547Z" fill="#F2F2F2"/>
<path d="M214.61 179.193H214.744C214.76 179.19 215.107 179.182 215.57 179.278C216 179.368 216.61 179.568 217.084 180.016C217.557 180.464 217.791 181.061 217.907 181.486C218.031 181.941 218.041 182.289 218.044 182.304L218.049 182.438H217.915C217.9 182.441 217.552 182.448 217.089 182.353C216.659 182.263 216.049 182.062 215.575 181.615C215.102 181.167 214.868 180.57 214.752 180.145C214.628 179.689 214.618 179.342 214.616 179.327L214.61 179.193ZM217.763 182.17C217.724 181.81 217.562 180.835 216.901 180.212C216.239 179.586 215.259 179.478 214.896 179.463C214.935 179.823 215.097 180.799 215.758 181.421C216.42 182.047 217.4 182.155 217.763 182.17Z" fill="#E4E4E3"/>
<path d="M218.139 180.121C218.937 181.19 218.724 182.695 218.724 182.695C218.724 182.695 217.218 182.471 216.423 181.406C215.625 180.338 215.838 178.832 215.838 178.832C215.838 178.832 217.344 179.056 218.139 180.121Z" fill="#F2F2F2"/>
<path d="M155.638 157.64C148.568 172.184 154.629 189.703 169.173 196.773C183.717 203.843 201.236 197.782 208.306 183.238C215.376 168.694 209.315 151.175 194.771 144.105C180.227 137.035 162.708 143.096 155.638 157.64ZM159.813 159.668C165.761 147.43 180.503 142.332 192.74 148.28C204.978 154.227 210.077 168.969 204.129 181.207C198.181 193.445 183.439 198.544 171.201 192.596C158.964 186.648 153.865 171.906 159.813 159.668Z" fill="#ED4650"/>
<path d="M159.813 159.671C153.866 171.908 158.964 186.65 171.202 192.598C183.44 198.546 198.182 193.447 204.129 181.21C210.077 168.972 204.979 154.23 192.741 148.282C180.503 142.334 165.761 147.433 159.813 159.671ZM161.17 160.329C166.754 148.84 180.593 144.053 192.082 149.638C203.571 155.223 208.358 169.062 202.773 180.551C197.188 192.04 183.35 196.827 171.861 191.242C160.372 185.657 155.585 171.818 161.17 160.329Z" fill="#FF959B"/>
<path d="M185.476 172.465C186.57 170.531 185.889 168.077 183.955 166.983C182.021 165.889 179.567 166.571 178.473 168.504C177.38 170.438 178.061 172.892 179.995 173.986C181.928 175.08 184.383 174.399 185.476 172.465Z" fill="#DA000D"/>
<path d="M122.989 98.9765L123.805 99.4681L123.83 99.4835L126.592 101.149L166.301 125.076L141.038 150.903L139.357 152.62C139.005 152.98 138.856 153.492 138.959 153.984C138.969 154.038 138.987 154.094 139.002 154.148L139.015 154.19C139.023 154.21 139.031 154.231 139.041 154.251C139.049 154.272 139.059 154.292 139.067 154.313C139.072 154.323 139.077 154.334 139.082 154.344C139.09 154.362 139.1 154.377 139.108 154.395C139.121 154.416 139.131 154.439 139.144 154.46C139.159 154.486 139.177 154.514 139.195 154.537C139.203 154.547 139.211 154.56 139.218 154.57C139.218 154.573 139.224 154.578 139.226 154.581C139.255 154.617 139.283 154.653 139.314 154.686C139.319 154.691 139.321 154.697 139.327 154.702C139.339 154.717 139.355 154.73 139.368 154.745C139.383 154.761 139.399 154.776 139.417 154.792C139.455 154.825 139.494 154.859 139.532 154.887C139.538 154.89 139.54 154.895 139.545 154.897C139.561 154.908 139.574 154.918 139.589 154.928C139.61 154.941 139.628 154.954 139.648 154.967C139.669 154.98 139.689 154.993 139.71 155.003C139.731 155.016 139.751 155.026 139.774 155.036C139.818 155.057 139.864 155.077 139.908 155.093L177.942 170.445L181.401 171.842C181.936 172.059 182.549 171.95 182.976 171.564C183.403 171.178 183.576 170.579 183.414 170.025L182.729 167.663L182.376 166.443L181.736 164.235L170.414 125.184L171.374 124.201L172.607 122.94L173.814 121.705L176.619 118.835L176.781 118.668C177.363 118.073 177.353 117.118 176.758 116.534C176.413 116.197 175.95 116.058 175.507 116.117C175.183 116.158 174.872 116.308 174.624 116.557L171.675 119.574L170.453 120.824L169.22 122.086L168.461 122.86L129.181 99.1902L126.42 97.5275L126.394 97.5121L124.536 96.3926C123.823 95.9628 122.894 96.1918 122.464 96.9047C122.034 97.6176 122.263 98.5441 122.976 98.9765H122.989ZM168 127.655L178.395 163.514L179.481 167.261L179.486 167.277L179.661 167.879L179.08 167.645L143.094 153.119L168.002 127.655H168Z" fill="#ED4650"/>
<path d="M86.6303 125.593C86.7796 125.791 86.9675 125.94 87.1734 126.043C87.6675 126.283 88.2723 126.244 88.7408 125.892L91.7185 123.65L120.212 102.209L122.731 100.312L123.828 99.4856L126.427 97.5296L128.689 95.8258L130.097 94.7655L134.171 91.6976C134.838 91.1983 134.972 90.2512 134.47 89.5847C133.97 88.9181 133.023 88.7868 132.357 89.2861L128.29 92.3462L126.883 93.4066L89.904 121.233L86.9237 123.475C86.2597 123.977 86.1259 124.921 86.6252 125.588L86.6303 125.593Z" fill="#ED4650"/>
<path d="M119.532 100.33L120.202 102.18L121.275 105.147L139.018 154.189C139.025 154.209 139.033 154.23 139.043 154.251C139.051 154.271 139.061 154.292 139.069 154.312C139.074 154.323 139.08 154.333 139.085 154.343C139.092 154.361 139.103 154.377 139.11 154.395C139.123 154.415 139.134 154.438 139.146 154.459C139.162 154.485 139.18 154.513 139.198 154.536C139.208 154.552 139.218 154.565 139.229 154.58C139.257 154.616 139.285 154.652 139.316 154.686C139.321 154.691 139.324 154.696 139.329 154.701C139.342 154.716 139.357 154.729 139.37 154.745C139.386 154.76 139.401 154.776 139.419 154.791C139.458 154.825 139.496 154.858 139.535 154.886C139.553 154.899 139.571 154.912 139.592 154.925C139.612 154.938 139.63 154.951 139.651 154.964C139.671 154.976 139.692 154.989 139.713 155C139.733 155.01 139.754 155.023 139.777 155.033C140.13 155.205 140.552 155.239 140.951 155.095C141.733 154.812 142.14 153.947 141.857 153.165L141.041 150.905L123.8 103.251L122.726 100.283L122.371 99.3027C122.088 98.5203 121.223 98.1136 120.438 98.3967C119.656 98.6798 119.249 99.5446 119.532 100.33Z" fill="#ED4650"/>
<path d="M183.496 167.273L183.74 166.833L145.601 145.459L145.356 145.899L183.496 167.273Z" fill="#DA000D"/>
<path d="M132.823 149.27C135.005 144.782 140.43 142.906 144.919 145.088C149.407 147.271 151.284 152.696 149.101 157.185C146.919 161.673 141.493 163.549 137.005 161.367C132.516 159.184 130.64 153.759 132.823 149.27ZM133.726 149.711C131.788 153.7 133.456 158.523 137.445 160.463C141.434 162.401 146.257 160.734 148.198 156.744C150.136 152.755 148.468 147.932 144.479 145.992C140.49 144.054 135.667 145.721 133.726 149.711Z" fill="#DA000D"/>
<path d="M143.638 160.894C147.883 159.426 150.134 154.795 148.665 150.55C147.197 146.305 142.566 144.054 138.321 145.522C134.076 146.99 131.825 151.622 133.293 155.867C134.762 160.112 139.393 162.362 143.638 160.894Z" fill="#DA000D"/>
<path d="M141.306 148.575C140.887 149.435 141.247 150.472 142.106 150.891C142.966 151.311 144.003 150.951 144.423 150.091C144.842 149.231 144.482 148.194 143.622 147.775C142.763 147.355 141.726 147.716 141.306 148.575Z" fill="white"/>
<path d="M143.712 153.046C143.293 153.905 143.653 154.943 144.513 155.362C145.372 155.782 146.409 155.421 146.829 154.562C147.248 153.702 146.888 152.665 146.029 152.245C145.169 151.826 144.132 152.186 143.712 153.046Z" fill="white"/>
<path d="M140.181 156.749C139.762 157.609 140.122 158.646 140.981 159.065C141.841 159.485 142.878 159.125 143.298 158.265C143.717 157.405 143.357 156.368 142.497 155.949C141.638 155.529 140.601 155.889 140.181 156.749Z" fill="white"/>
<path d="M138.553 156.223C139.102 155.439 138.911 154.359 138.127 153.81C137.343 153.262 136.263 153.453 135.715 154.236C135.166 155.02 135.357 156.1 136.141 156.649C136.924 157.197 138.004 157.006 138.553 156.223Z" fill="white"/>
<path d="M136.302 149.445C135.883 150.305 136.243 151.342 137.103 151.762C137.962 152.181 138.999 151.821 139.419 150.961C139.838 150.102 139.478 149.064 138.618 148.645C137.759 148.225 136.722 148.586 136.302 149.445Z" fill="white"/>
<path d="M141.306 148.575C140.887 149.435 141.247 150.472 142.106 150.891C142.966 151.311 144.003 150.951 144.423 150.091C144.842 149.231 144.482 148.194 143.622 147.775C142.763 147.355 141.726 147.716 141.306 148.575Z" fill="white"/>
<path d="M138.21 161.835L180.763 174.268L180.907 173.787L138.352 161.354L138.21 161.835Z" fill="#DA000D"/>
<path d="M132.231 160.453L141.453 153.579L140.781 152.649L131.56 159.524L132.231 160.453Z" fill="#ED4650"/>
<path d="M129.98 157.242L128.686 158.779L133.342 162.699L134.637 161.161L129.98 157.242Z" fill="#DA000D"/>
<path d="M108.167 85.7032C106.196 89.7567 107.892 94.657 111.945 96.6258L115.844 98.5201C116.593 98.8855 117.497 98.5715 117.859 97.8226C118.222 97.0737 117.911 96.1703 117.162 95.8074L113.263 93.9132C110.705 92.6701 109.637 89.5791 110.88 87.0235C112.123 84.4678 115.214 83.3972 117.769 84.6402L132.607 91.8517C133.356 92.2146 134.259 91.9031 134.622 91.1542C134.985 90.4053 134.673 89.5019 133.924 89.139L119.087 81.9276C115.034 79.9587 110.133 81.6522 108.164 85.7058L108.167 85.7032Z" fill="#ED4650"/>
<path d="M178.752 162.777L178.395 163.516L179.481 167.263L182.268 168.617L182.736 167.657L181.743 164.231L178.752 162.777Z" fill="#ED4650"/>
<path d="M170.46 120.849L169.226 122.107L171.379 124.22L172.613 122.961L170.46 120.849Z" fill="#FF999F"/>
<path d="M126.888 93.4084L128.694 95.825L130.102 94.7647L128.295 92.3506L126.888 93.4084Z" fill="#FF999F"/>
<path d="M171.686 119.572C172.476 120.648 173.243 121.307 173.824 121.701L176.63 118.831L175.518 116.113C175.193 116.154 174.882 116.304 174.635 116.553L171.686 119.57V119.572Z" fill="#FF999F"/>
<path d="M163.053 111.645C168.643 114.932 170.458 116.682 171.69 118.056C172.614 119.086 173.211 119.907 174.825 121.006C181.097 125.281 186.803 120.478 188.291 119.029C188.45 118.872 188.37 118.602 188.149 118.561C187.642 118.466 187.138 118.357 186.636 118.237C180.739 116.816 175.317 113.715 169.562 111.221C164.873 109.19 163.359 110.243 162.886 110.953C162.731 111.185 162.811 111.504 163.053 111.645Z" fill="#ED4650"/>
<path d="M171.69 118.057C172.614 119.086 173.211 119.907 174.825 121.006C181.097 125.281 186.803 120.478 188.291 119.029C188.45 118.873 188.37 118.602 188.149 118.561C187.642 118.466 187.138 118.358 186.636 118.237C186.636 118.237 181.303 124.977 171.69 118.057Z" fill="#FF6D76"/>
<path d="M108.167 85.7032C106.196 89.7567 107.892 94.657 111.945 96.6258L115.844 98.5201C116.593 98.8855 117.497 98.5715 117.859 97.8226C118.222 97.0737 117.911 96.1703 117.162 95.8074L113.263 93.9132C110.705 92.6701 109.637 89.5791 110.88 87.0235C112.123 84.4678 115.214 83.3972 117.769 84.6402L123.061 87.2113L124.379 84.4987L119.087 81.9276C115.034 79.9587 110.133 81.6522 108.164 85.7058L108.167 85.7032Z" fill="#ED4650"/>
<path d="M123.042 87.2129L125.098 88.2119L126.416 85.499L124.361 84.5L123.042 87.2129Z" fill="#FF999F"/>
<path d="M86.6303 125.593C86.7796 125.791 86.9675 125.94 87.1734 126.043C87.6675 126.283 88.2723 126.244 88.7408 125.892L91.7185 123.65C91.456 122.669 90.828 121.792 89.904 121.238L86.9237 123.48C86.2597 123.982 86.1259 124.926 86.6252 125.593H86.6303Z" fill="#FF999F"/>
<path d="M202.882 199.579H88.1888C87.3985 199.579 86.7578 200.22 86.7578 201.01C86.7578 201.8 87.3985 202.441 88.1888 202.441H202.882C203.672 202.441 204.313 201.8 204.313 201.01C204.313 200.22 203.672 199.579 202.882 199.579Z" fill="#ED4650"/>
<path d="M90.3217 199.579H71.7835C70.9932 199.579 70.3525 200.22 70.3525 201.01C70.3525 201.8 70.9932 202.441 71.7835 202.441H90.3217C91.112 202.441 91.7526 201.8 91.7526 201.01C91.7526 200.22 91.112 199.579 90.3217 199.579Z" fill="#ED4650"/>
<path d="M63.221 199.579H43.7435C42.9532 199.579 42.3125 200.22 42.3125 201.01C42.3125 201.8 42.9532 202.441 43.7435 202.441H63.221C64.0113 202.441 64.652 201.8 64.652 201.01C64.652 200.22 64.0113 199.579 63.221 199.579Z" fill="#ED4650"/>
<path d="M227.653 199.579H211.67C210.88 199.579 210.239 200.22 210.239 201.01C210.239 201.8 210.88 202.441 211.67 202.441H227.653C228.443 202.441 229.084 201.8 229.084 201.01C229.084 200.22 228.443 199.579 227.653 199.579Z" fill="#ED4650"/>
<path d="M248.598 199.579H236.452C235.662 199.579 235.021 200.22 235.021 201.01C235.021 201.8 235.662 202.441 236.452 202.441H248.598C249.388 202.441 250.029 201.8 250.029 201.01C250.029 200.22 249.388 199.579 248.598 199.579Z" fill="#ED4650"/>
</svg>
