<svg width="25" height="25" viewBox="0 0 25 25" fill="none" xmlns="http://www.w3.org/2000/svg">
<path fill-rule="evenodd" clip-rule="evenodd" d="M15.6018 2.55626C14.7973 2.48436 13.8141 2.48437 12.5703 2.48438H12.4999C11.2561 2.48437 10.2729 2.48436 9.46833 2.55626C8.64188 2.6301 7.95062 2.78314 7.29731 3.11829C7.12807 3.20511 6.96325 3.30027 6.80345 3.40342C6.18655 3.80163 5.70838 4.32376 5.2312 5.00257C4.76665 5.6634 4.27508 6.51484 3.65318 7.59201L3.61796 7.65302C2.99605 8.73019 2.50447 9.58162 2.16444 10.3143C1.81517 11.067 1.60208 11.7422 1.56567 12.4755C1.55624 12.6655 1.55624 12.8558 1.56567 13.0458C1.60208 13.7791 1.81517 14.4543 2.16444 15.207C2.50447 15.9397 2.99604 16.7911 3.61795 17.8683L3.65319 17.9293C4.27508 19.0065 4.76666 19.8579 5.2312 20.5187C5.70838 21.1976 6.18655 21.7197 6.80345 22.1179C6.96326 22.221 7.12808 22.3162 7.29731 22.403C7.95062 22.7382 8.64188 22.8912 9.46833 22.9651C10.2729 23.0369 11.256 23.0369 12.4998 23.0369H12.5703C13.8141 23.0369 14.7973 23.0369 15.6018 22.9651C16.4283 22.8912 17.1196 22.7382 17.7729 22.403C17.9421 22.3162 18.1069 22.221 18.2667 22.1179C18.8836 21.7197 19.3618 21.1976 19.839 20.5187C20.3035 19.8579 20.7951 19.0065 21.417 17.9293L21.4522 17.8683C22.0741 16.7911 22.5657 15.9397 22.9057 15.207C23.255 14.4543 23.4681 13.7791 23.5045 13.0458C23.5139 12.8558 23.5139 12.6655 23.5045 12.4755C23.4681 11.7422 23.255 11.067 22.9057 10.3143C22.5657 9.58161 22.0741 8.73017 21.4522 7.65299L21.417 7.59203C20.7951 6.51485 20.3035 5.6634 19.839 5.00256C19.3618 4.32376 18.8836 3.80163 18.2667 3.40342C18.1069 3.30027 17.9421 3.20511 17.7729 3.11829C17.1196 2.78314 16.4283 2.6301 15.6018 2.55626ZM18.2084 10.2338C18.3908 9.86193 18.2372 9.41258 17.8653 9.23016C17.4935 9.04774 17.0441 9.20133 16.8617 9.57321L15.4014 12.5503C14.9487 13.473 13.6184 13.428 13.2292 12.4767C12.35 10.3276 9.34459 10.2258 8.32202 12.3104L6.86168 15.2875C6.67926 15.6594 6.83285 16.1087 7.20473 16.2911C7.57662 16.4736 8.02597 16.32 8.20839 15.9481L9.66872 12.971C10.1214 12.0483 11.4517 12.0934 11.8409 13.0446C12.72 15.1937 15.7255 15.2955 16.7481 13.2109L18.2084 10.2338Z" fill="#999999"/>
</svg>
