<svg height="512" viewBox="0 0 64 64" width="512" xmlns="http://www.w3.org/2000/svg"><g id="Layer_32" data-name="Layer 32"><path d="m53.5 36.65v-18.65a1 1 0 0 0 -.5-.87l-24.25-14a1 1 0 0 0 -1 0l-24.25 14a1 1 0 0 0 -.5.87v28a1 1 0 0 0 .5.87l24.25 14a1 1 0 0 0 1 0l9.11-5.26a12.74 12.74 0 1 0 15.64-19zm-25.25-31.5 22.25 12.85-11.16 6.44-20.66-13.76zm0 25.7-22.25-12.85 10.75-6.21 20.65 13.77zm-23.25-11.12 22.25 12.85v25.69l-22.25-12.85zm24.25 38.54v-25.69l9-5.23v7.79a1 1 0 0 0 2 0v-8.94l11.2-6.47v16.21a12.44 12.44 0 0 0 -3.25-.44 12.73 12.73 0 0 0 -11.37 18.39zm19 .73a10.75 10.75 0 1 1 10.75-10.75 10.76 10.76 0 0 1 -10.75 10.75z"/><path d="m53 43.06-6.2 8.18-3.25-3.82a1 1 0 0 0 -1.55 1.29l4 4.78a1 1 0 0 0 .76.35 1 1 0 0 0 .77-.4l6.95-9.17a1 1 0 1 0 -1.48-1.21z"/></g></svg>