<svg width="20" height="20" viewBox="0 0 20 20" fill="none" xmlns="http://www.w3.org/2000/svg">
<g id="bank-building 1" clip-path="url(#clip0_104_13910)">
<g id="Group">
<g id="Layer_1_78_">
<g id="Group_2">
<path id="Vector" d="M19.0826 18.1777H0.908917C0.4068 18.1777 0 18.5845 0 19.0871C0 19.5888 0.4068 19.9956 0.908917 19.9956H19.0821C19.5843 19.9956 19.9911 19.5888 19.9911 19.0871C19.9906 18.5845 19.5838 18.1777 19.0826 18.1777Z" fill="#0C0C0C"/>
<path id="Vector_2" d="M2.04564 15.8142C1.54352 15.8142 1.13672 16.221 1.13672 16.7231C1.13672 17.2252 1.54352 17.6324 2.04564 17.6324H17.9474C18.4495 17.6324 18.8563 17.2252 18.8563 16.7231C18.8563 16.221 18.4495 15.8142 17.9474 15.8142H17.7206V7.6356H17.9474C18.1989 7.6356 18.4015 7.43221 18.4015 7.18157C18.4015 6.93094 18.1981 6.72754 17.9474 6.72754H2.04564C1.79458 6.72754 1.5916 6.93094 1.5916 7.18157C1.5916 7.43221 1.795 7.6356 2.04564 7.6356H2.27286V15.8137L2.04564 15.8142ZM15.9028 7.6356V15.8137H13.1769V7.6356H15.9028ZM11.3591 7.6356V15.8137H8.63315V7.6356H11.3591ZM4.08985 7.6356H6.81575V15.8137H4.08985V7.6356Z" fill="#0C0C0C"/>
<path id="Vector_3" d="M0.908934 5.91093H19.0822C19.0851 5.91093 19.0886 5.91093 19.0911 5.91093C19.5936 5.91093 20 5.50413 20 5.00201C20 4.60287 19.743 4.26458 19.386 4.14203L10.3692 0.0846684C10.1321 -0.0217124 9.86108 -0.0217124 9.62364 0.0846684L0.536176 4.17352C0.145121 4.34968 -0.0697685 4.77436 0.0204424 5.19307C0.110228 5.61178 0.480433 5.91093 0.908934 5.91093Z" fill="#0C0C0C"/>
</g>
</g>
</g>
</g>
<defs>
<clipPath id="clip0_104_13910">
<rect width="20" height="20" fill="white"/>
</clipPath>
</defs>
</svg>
