<svg width="29" height="29" viewBox="0 0 29 29" fill="none" xmlns="http://www.w3.org/2000/svg">
<path d="M15.0683 4.51701L11.5579 2.49023L1.71484 8.17314L5.22523 10.1999L15.0683 4.51701Z" fill="#ED4650"/>
<path d="M18.4016 6.43945L8.55859 12.1223L11.5585 13.8543L21.4015 8.17141L18.4016 6.43945Z" fill="#ED4650"/>
<path d="M8.22266 20.3643C8.22154 20.4314 8.20015 20.4967 8.1613 20.5515C8.12245 20.6062 8.06795 20.648 8.00495 20.6712C7.96699 20.6852 7.92684 20.6924 7.88638 20.6924C7.83956 20.6924 7.79327 20.6825 7.75057 20.6633C7.70787 20.6441 7.66972 20.6161 7.63865 20.5811L6.40638 19.182L5.35156 19.6175C5.30074 19.6381 5.24568 19.6461 5.1911 19.6408C5.13652 19.6355 5.08404 19.617 5.03815 19.587C4.99259 19.5573 4.95498 19.517 4.92859 19.4694C4.9022 19.4219 4.88782 19.3686 4.88672 19.3143V10.7674L1.38672 8.74023V21.1576L11.2305 26.8409V14.4235L8.22266 12.6806V20.3643ZM2.75391 21.069C2.75391 21.1561 2.71934 21.2395 2.6578 21.3011C2.59627 21.3626 2.51281 21.3972 2.42578 21.3972C2.33876 21.3972 2.2553 21.3626 2.19376 21.3011C2.13223 21.2395 2.09766 21.1561 2.09766 21.069V19.6515C2.09766 19.5645 2.13223 19.481 2.19376 19.4195C2.2553 19.3579 2.33876 19.3234 2.42578 19.3234C2.51281 19.3234 2.59627 19.3579 2.6578 19.4195C2.71934 19.481 2.75391 19.5645 2.75391 19.6515V21.069ZM4.28516 21.9787C4.28516 22.0657 4.25059 22.1491 4.18905 22.2107C4.12752 22.2722 4.04406 22.3068 3.95703 22.3068C3.87001 22.3068 3.78655 22.2722 3.72501 22.2107C3.66348 22.1491 3.62891 22.0657 3.62891 21.9787V20.7015C3.62891 20.6145 3.66348 20.531 3.72501 20.4695C3.78655 20.4079 3.87001 20.3734 3.95703 20.3734C4.04406 20.3734 4.12752 20.4079 4.18905 20.4695C4.25059 20.531 4.28516 20.6145 4.28516 20.7015V21.9787ZM5.87109 22.8761C5.87109 22.9631 5.83652 23.0466 5.77499 23.1081C5.71345 23.1696 5.62999 23.2042 5.54297 23.2042C5.45594 23.2042 5.37248 23.1696 5.31095 23.1081C5.24941 23.0466 5.21484 22.9631 5.21484 22.8761V21.7517C5.21484 21.6647 5.24941 21.5812 5.31095 21.5197C5.37248 21.4581 5.45594 21.4236 5.54297 21.4236C5.62999 21.4236 5.71345 21.4581 5.77499 21.5197C5.83652 21.5812 5.87109 21.6647 5.87109 21.7517V22.8761ZM7.40234 23.7736C7.40234 23.8606 7.36777 23.944 7.30624 24.0056C7.2447 24.0671 7.16124 24.1017 7.07422 24.1017C6.98719 24.1017 6.90373 24.0671 6.8422 24.0056C6.78066 23.944 6.74609 23.8606 6.74609 23.7736V22.8015C6.74609 22.7145 6.78066 22.631 6.8422 22.5695C6.90373 22.5079 6.98719 22.4734 7.07422 22.4734C7.16124 22.4734 7.2447 22.5079 7.30624 22.5695C7.36777 22.631 7.40234 22.7145 7.40234 22.8015V23.7736ZM8.33203 23.8517C8.33203 23.7647 8.3666 23.6812 8.42814 23.6197C8.48967 23.5581 8.57313 23.5236 8.66016 23.5236C8.74718 23.5236 8.83064 23.5581 8.89218 23.6197C8.95371 23.6812 8.98828 23.7647 8.98828 23.8517V24.6917C8.98828 24.7787 8.95371 24.8621 8.89218 24.9237C8.83064 24.9852 8.74718 25.0198 8.66016 25.0198C8.57313 25.0198 8.48967 24.9852 8.42814 24.9237C8.3666 24.8621 8.33203 24.7787 8.33203 24.6917V23.8517Z" fill="#ED4650"/>
<path d="M5.54297 18.824L6.36629 18.4862C6.43085 18.4601 6.50186 18.4544 6.56976 18.4698C6.63766 18.4853 6.6992 18.5212 6.74609 18.5727L7.56641 19.4951V12.302L5.54297 11.1465V18.824Z" fill="#ED4650"/>
<path d="M21.7305 15.7662V8.74023L11.8867 14.4235V26.8409L17.0777 23.844C16.6613 23.0186 16.4568 22.1025 16.4824 21.1783C16.5081 20.2542 16.7631 19.3509 17.2245 18.5497C17.686 17.7486 18.3394 17.0747 19.1259 16.5888C19.9125 16.1029 20.8075 15.8202 21.7305 15.7662ZM13.2851 16.2929L14.2094 14.5734C14.234 14.5276 14.2691 14.4883 14.3119 14.4588C14.3546 14.4292 14.4038 14.4103 14.4553 14.4035C14.5068 14.3966 14.5592 14.4022 14.6082 14.4196C14.6572 14.437 14.7013 14.4657 14.737 14.5035L15.7159 15.5406C15.7455 15.5719 15.7686 15.6088 15.7839 15.649C15.7992 15.6893 15.8065 15.7322 15.8053 15.7753C15.804 15.8183 15.7943 15.8608 15.7767 15.9001C15.759 15.9394 15.7338 15.9749 15.7025 16.0044C15.6718 16.034 15.6355 16.0571 15.5958 16.0724C15.556 16.0878 15.5136 16.095 15.471 16.0938C15.4285 16.0925 15.3866 16.0828 15.3478 16.0652C15.309 16.0475 15.2742 16.0223 15.2452 15.991L14.8398 15.5546V19.5405C14.8398 19.6275 14.8053 19.711 14.7437 19.7725C14.6822 19.8341 14.5987 19.8686 14.5117 19.8686C14.4247 19.8686 14.3412 19.8341 14.2797 19.7725C14.2182 19.711 14.1836 19.6275 14.1836 19.5405V16.0323L13.8697 16.604C13.8274 16.6808 13.7566 16.7379 13.6725 16.7629C13.5884 16.7879 13.4979 16.7788 13.4204 16.7376C13.3436 16.6965 13.2862 16.6267 13.2608 16.5434C13.2355 16.46 13.2442 16.3701 13.2851 16.2932V16.2929ZM15.6416 20.7056L13.8978 21.7123C13.8224 21.7558 13.7329 21.7676 13.6488 21.7451C13.5647 21.7226 13.4931 21.6676 13.4496 21.5922C13.406 21.5168 13.3942 21.4273 13.4168 21.3432C13.4393 21.2591 13.4943 21.1875 13.5697 21.144L15.3135 20.1372C15.3508 20.1157 15.392 20.1017 15.4347 20.0961C15.4775 20.0904 15.5209 20.0933 15.5625 20.1044C15.6041 20.1156 15.6431 20.1348 15.6773 20.1611C15.7115 20.1873 15.7402 20.22 15.7617 20.2573C15.7833 20.2947 15.7973 20.3359 15.8029 20.3786C15.8085 20.4213 15.8057 20.4647 15.7945 20.5063C15.7834 20.548 15.7641 20.587 15.7379 20.6212C15.7116 20.6554 15.6789 20.684 15.6416 20.7056Z" fill="#ED4650"/>
<path d="M22.0586 16.4121C21.0851 16.4121 20.1335 16.7008 19.3241 17.2416C18.5148 17.7824 17.8839 18.5511 17.5114 19.4505C17.1389 20.3498 17.0414 21.3394 17.2313 22.2942C17.4212 23.2489 17.89 24.1259 18.5783 24.8143C19.2666 25.5026 20.1436 25.9714 21.0984 26.1613C22.0531 26.3512 23.0428 26.2537 23.9421 25.8812C24.8415 25.5087 25.6102 24.8778 26.151 24.0684C26.6918 23.259 26.9805 22.3074 26.9805 21.334C26.979 20.0291 26.46 18.778 25.5373 17.8553C24.6146 16.9326 23.3635 16.4136 22.0586 16.4121ZM24.0504 23.1988C24.021 23.2303 23.9856 23.2556 23.9464 23.2734C23.9071 23.2912 23.8648 23.3011 23.8217 23.3025C23.7786 23.3039 23.7357 23.2969 23.6954 23.2817C23.655 23.2665 23.6181 23.2435 23.5866 23.2141L21.8343 21.5735C21.8015 21.5428 21.7754 21.5057 21.7575 21.4645C21.7396 21.4233 21.7304 21.3788 21.7304 21.3339V17.9295C21.7304 17.8425 21.765 17.759 21.8265 17.6975C21.8881 17.636 21.9715 17.6014 22.0585 17.6014C22.1456 17.6014 22.229 17.636 22.2906 17.6975C22.3521 17.759 22.3867 17.8425 22.3867 17.9295V21.1917L24.0351 22.7351C24.0666 22.7645 24.0919 22.7999 24.1097 22.8391C24.1275 22.8784 24.1374 22.9207 24.1388 22.9638C24.1403 23.0069 24.1332 23.0498 24.118 23.0901C24.1028 23.1305 24.0799 23.1674 24.0504 23.1989V23.1988Z" fill="#ED4650"/>
<path d="M7.90308 11.7438L17.7461 6.06091L15.7259 4.89453L5.88281 10.5774L7.90308 11.7438Z" fill="#ED4650"/>
</svg>
