<svg width="13" height="8" viewBox="0 0 13 8" fill="none" xmlns="http://www.w3.org/2000/svg">
<path fill-rule="evenodd" clip-rule="evenodd" d="M0.318359 4.15567C0.318359 2.1958 2.96724 0.429688 6.62281 0.429688C10.1966 0.429688 12.9021 2.16227 12.9021 4.14449C12.9021 6.44342 9.731 7.87047 6.61023 7.87047C5.57836 7.87047 4.43324 7.70653 3.51463 7.38609C3.19374 7.27059 2.92319 7.18489 2.57714 7.25196L1.30618 7.47551C0.985298 7.53513 0.695872 7.38609 0.79025 7.18489L1.2118 6.35027C1.28102 6.23476 1.26843 6.11181 1.16776 6.01493C0.626661 5.42623 0.318359 4.78163 0.318359 4.15567ZM5.79227 4.15565C5.79227 4.4202 6.15091 4.63258 6.59763 4.6363C7.04434 4.6363 7.40298 4.4202 7.40298 4.15938C7.40298 3.89483 7.04434 3.68245 6.59763 3.68245C6.1572 3.67873 5.79227 3.89483 5.79227 4.15565ZM8.69284 4.15939C8.69284 4.42021 9.05148 4.63632 9.4982 4.63632C9.94492 4.63632 10.3036 4.42021 10.3036 4.15939C10.3036 3.89485 9.94492 3.68246 9.4982 3.68246C9.05148 3.68246 8.69284 3.89485 8.69284 4.15939ZM3.69708 4.63631C3.25665 4.63631 2.89172 4.4202 2.89172 4.15938C2.89172 3.89484 3.25036 3.68246 3.69708 3.68246C4.14381 3.68246 4.50244 3.89484 4.50244 4.15938C4.50244 4.4202 4.14381 4.63258 3.69708 4.63631Z" fill="white"/>
</svg>
