<svg width="33" height="34" viewBox="0 0 33 34" fill="none" xmlns="http://www.w3.org/2000/svg">
<path d="M21.7839 21.2906C21.7776 21.4914 21.7498 21.6231 21.7232 21.7028C21.6954 21.786 21.6708 21.8092 21.6687 21.8112L21.6685 21.8114C21.6655 21.8144 21.6416 21.8386 21.5602 21.8658C21.4697 21.896 21.3122 21.9277 21.0625 21.9277H12.1732C11.9235 21.9277 11.766 21.896 11.6755 21.8658C11.594 21.8386 11.5701 21.8144 11.5672 21.8114L11.567 21.8112L11.5668 21.8111C11.5638 21.8081 11.5396 21.7842 11.5125 21.7028C11.4823 21.6123 11.4505 21.4548 11.4505 21.2051V14.5384C11.4505 14.2887 11.4823 14.1312 11.5125 14.0407C11.5396 13.9593 11.5638 13.9354 11.5668 13.9324L11.567 13.9322L11.5672 13.9321C11.5701 13.9291 11.594 13.9049 11.6755 13.8777C11.766 13.8475 11.9235 13.8158 12.1732 13.8158H13.6546H14.7364L15.0779 12.7893L15.4759 11.5931H17.7584L18.1565 12.7893L18.498 13.8158H19.5798H21.0612C21.3109 13.8158 21.4684 13.8475 21.5589 13.8777C21.6403 13.9049 21.6642 13.9291 21.6672 13.9321L21.6674 13.9322C21.6695 13.9343 21.6941 13.9575 21.7219 14.0407C21.7521 14.1312 21.7839 14.2887 21.7839 14.5384V21.2051V21.2906ZM16.6185 1.92773C8.42606 1.92773 1.78516 8.56864 1.78516 16.7611C1.78516 24.9535 8.42606 31.5944 16.6185 31.5944C24.8109 31.5944 31.4518 24.9535 31.4518 16.7611C31.4518 8.56864 24.8109 1.92773 16.6185 1.92773ZM16.6185 21.5944C18.6749 21.5944 20.3411 19.9282 20.3411 17.8717C20.3411 15.8172 18.6755 14.1491 16.6185 14.1491C14.5615 14.1491 12.8958 15.8172 12.8958 17.8717C12.8958 19.9282 14.5621 21.5944 16.6185 21.5944Z" fill="#ED4650" stroke="white" stroke-width="3"/>
</svg>
