<svg width="15" height="15" viewBox="0 0 15 15" fill="none" xmlns="http://www.w3.org/2000/svg">
<path d="M6.75343 6.18407V5.58951C6.75385 5.30218 6.66366 5.02204 6.49569 4.78893C6.32772 4.55581 6.09052 4.3816 5.81783 4.29106L5.27135 4.10744C4.89785 4.44803 4.41061 4.63683 3.90513 4.63683C3.39966 4.63683 2.91242 4.44802 2.53892 4.10742L1.99025 4.29106C1.71757 4.3816 1.48037 4.55581 1.31241 4.78893C1.14445 5.02204 1.05426 5.30218 1.05469 5.5895V6.18407C1.05466 6.32921 1.11215 6.46846 1.21458 6.5713C1.31701 6.67414 1.45603 6.73219 1.60117 6.73274H6.20696C6.3521 6.73219 6.49111 6.67413 6.59353 6.57129C6.69596 6.46846 6.75346 6.32922 6.75343 6.18407Z" fill="#ED4650"/>
<path d="M3.03298 3.94139C4.02789 4.64167 5.52597 3.85503 5.49219 2.61457C5.49181 2.19321 5.32427 1.78922 5.02633 1.49128C4.72839 1.19333 4.3244 1.02578 3.90305 1.02539C2.33344 1.02295 1.73106 3.10081 3.03298 3.94139Z" fill="#ED4650"/>
<path d="M12.3608 10.834L11.8121 10.6526C11.438 10.9921 10.9507 11.18 10.4455 11.1796C9.94027 11.1792 9.45331 10.9905 9.07972 10.6504L8.53323 10.8318C8.26059 10.9231 8.02355 11.0978 7.85565 11.3312C7.68776 11.5646 7.5975 11.8449 7.59766 12.1325V12.727C7.59763 12.8722 7.65512 13.0114 7.75755 13.1143C7.85998 13.2171 7.999 13.2752 8.14414 13.2757H12.7499C12.8951 13.2752 13.0341 13.2171 13.1365 13.1143C13.2389 13.0114 13.2964 12.8722 13.2964 12.727V12.1325C13.2968 11.8451 13.2066 11.565 13.0387 11.3319C12.8707 11.0988 12.6335 10.9246 12.3608 10.834Z" fill="#ED4650"/>
<path d="M10.448 7.56836C8.87362 7.56636 8.27439 9.64459 9.57792 10.4866C10.5741 11.1834 12.0674 10.3981 12.0349 9.15754C12.0347 8.73653 11.8675 8.3328 11.57 8.03488C11.2725 7.73697 10.869 7.5692 10.448 7.56836Z" fill="#ED4650"/>
<path d="M9.49373 4.27264V3.87262C10.1184 3.92103 10.711 4.16866 11.1844 4.57909C11.6578 4.98952 11.987 5.54106 12.1234 6.15256C12.1161 6.4014 11.7839 6.76353 12.0906 6.92203C12.5256 7.10036 12.6265 5.81019 12.6284 5.52519C12.627 4.67405 12.3026 3.85514 11.7208 3.23393C11.1389 2.61272 10.343 2.23551 9.49373 2.17852V1.76318C9.49277 1.72389 9.48139 1.68556 9.46074 1.65212C9.44009 1.61867 9.41093 1.59132 9.37623 1.57285C9.34153 1.55439 9.30255 1.54549 9.26327 1.54705C9.224 1.54861 9.18585 1.56059 9.15272 1.58175L7.27282 2.8365C7.24297 2.85642 7.21849 2.88341 7.20156 2.91505C7.18464 2.9467 7.17578 2.98204 7.17578 3.01793C7.17578 3.05382 7.18464 3.08916 7.20156 3.1208C7.21849 3.15245 7.24297 3.17944 7.27282 3.19936L9.15272 4.45407C9.1858 4.47546 9.22399 4.48762 9.26335 4.48929C9.3027 4.49096 9.34178 4.48209 9.37656 4.46359C9.41133 4.44509 9.44053 4.41763 9.46113 4.38406C9.48173 4.35049 9.49298 4.31202 9.49373 4.27264Z" fill="#ED4650"/>
<path d="M5.20041 9.84785C5.16733 9.82647 5.12914 9.81432 5.08979 9.81265C5.05044 9.81098 5.01135 9.81985 4.97658 9.83835C4.94181 9.85685 4.91262 9.8843 4.89201 9.91787C4.87141 9.95144 4.86015 9.9899 4.8594 10.0293V10.4293C4.23474 10.3809 3.64211 10.1333 3.16873 9.72285C2.69534 9.31242 2.36621 8.76088 2.22976 8.14938C2.23768 7.90253 2.56823 7.53641 2.2625 7.37992C2.2361 7.36894 2.2078 7.36329 2.17921 7.36328C2.15062 7.36327 2.12232 7.36891 2.09592 7.37988C2.06952 7.39084 2.04554 7.40692 2.02537 7.42717C2.0052 7.44743 1.98922 7.47147 1.97837 7.49792C1.07914 9.55793 2.63122 12.0261 4.8594 12.1234V12.5387C4.86024 12.5781 4.87154 12.6165 4.89217 12.65C4.91279 12.6835 4.94197 12.7109 4.97671 12.7294C5.01146 12.7479 5.0505 12.7568 5.08982 12.7552C5.12914 12.7535 5.16731 12.7415 5.20041 12.7202L7.08032 11.4654C7.11018 11.4455 7.13465 11.4185 7.15158 11.3869C7.16851 11.3552 7.17737 11.3199 7.17737 11.284C7.17737 11.2481 7.16851 11.2128 7.15158 11.1811C7.13465 11.1495 7.11018 11.1225 7.08032 11.1026L5.20041 9.84785Z" fill="#ED4650"/>
</svg>
