<svg width="20" height="20" viewBox="0 0 20 20" fill="none" xmlns="http://www.w3.org/2000/svg">
<g id="Calendar container">
<path id="Calendar" fill-rule="evenodd" clip-rule="evenodd" d="M0.833984 10.0144C0.833984 5.18551 4.69315 0.833984 10.019 0.833984C15.2257 0.833984 19.1673 5.10289 19.1673 9.98688C19.1673 15.6512 14.5473 19.1673 10.0007 19.1673C8.49732 19.1673 6.82898 18.7634 5.49065 17.9739C5.02315 17.6893 4.62898 17.4781 4.12482 17.6434L2.27315 18.1942C1.80565 18.3411 1.38398 17.9739 1.52148 17.4781L2.13565 15.4217C2.23648 15.1371 2.21815 14.8342 2.07148 14.5955C1.28315 13.1449 0.833984 11.5567 0.833984 10.0144ZM8.80898 10.0144C8.80898 10.6662 9.33148 11.1895 9.98232 11.1987C10.6332 11.1987 11.1557 10.6662 11.1557 10.0236C11.1557 9.37179 10.6332 8.84851 9.98232 8.84851C9.34065 8.83932 8.80898 9.37179 8.80898 10.0144ZM13.0348 10.0236C13.0348 10.6662 13.5573 11.1987 14.2082 11.1987C14.859 11.1987 15.3815 10.6662 15.3815 10.0236C15.3815 9.37179 14.859 8.84851 14.2082 8.84851C13.5573 8.84851 13.0348 9.37179 13.0348 10.0236ZM5.75648 11.1987C5.11482 11.1987 4.58315 10.6662 4.58315 10.0236C4.58315 9.37179 5.10565 8.84851 5.75648 8.84851C6.40732 8.84851 6.92982 9.37179 6.92982 10.0236C6.92982 10.6662 6.40732 11.1895 5.75648 11.1987Z" fill="white"/>
</g>
</svg>
