<svg width="21" height="21" viewBox="0 0 21 21" fill="none" xmlns="http://www.w3.org/2000/svg">
<g clip-path="url(#clip0_12_1232)">
<path d="M12.528 3.48438C14.2961 3.48438 15.9918 4.18675 17.242 5.437C18.4923 6.68724 19.1947 8.38293 19.1947 10.151C19.1947 11.9192 18.4923 13.6148 17.242 14.8651C15.9918 16.1153 14.2961 16.8177 12.528 16.8177C10.7599 16.8177 9.06419 16.1153 7.81395 14.8651C6.56371 13.6148 5.86133 11.9192 5.86133 10.151C5.86133 8.38293 6.56371 6.68724 7.81395 5.437C9.06419 4.18675 10.7599 3.48438 12.528 3.48438ZM12.528 15.151C13.8541 15.151 15.1258 14.6243 16.0635 13.6866C17.0012 12.7489 17.528 11.4771 17.528 10.151C17.528 8.82496 17.0012 7.55319 16.0635 6.61551C15.1258 5.67783 13.8541 5.15104 12.528 5.15104C11.2019 5.15104 9.93014 5.67783 8.99246 6.61551C8.05478 7.55319 7.52799 8.82496 7.52799 10.151C7.52799 11.4771 8.05478 12.7489 8.99246 13.6866C9.93014 14.6243 11.2019 15.151 12.528 15.151ZM2.52799 10.151C2.52796 11.1843 2.84858 12.1922 3.44563 13.0355C4.04268 13.8788 4.88673 14.5161 5.86133 14.8594V16.601C2.98633 15.8594 0.861328 13.2594 0.861328 10.151C0.861328 7.04271 2.98633 4.44271 5.86133 3.70104V5.44271C3.91966 6.12604 2.52799 7.97604 2.52799 10.151Z" fill="white"/>
</g>
<defs>
<clipPath id="clip0_12_1232">
<rect width="20" height="20" fill="white" transform="translate(0.0273438 0.150391)"/>
</clipPath>
</defs>
</svg>
