<svg width="19" height="19" viewBox="0 0 19 19" fill="none" xmlns="http://www.w3.org/2000/svg">
<path d="M8.45313 14.7754H12.7281C12.5063 15.3297 12.1233 15.8047 11.6285 16.139C11.1338 16.4733 10.5502 16.6514 9.9531 16.6504H4.70311C4.30912 16.6505 3.91896 16.573 3.55494 16.4222C3.19091 16.2715 2.86015 16.0505 2.58155 15.7719C2.30296 15.4933 2.08198 15.1626 1.93126 14.7986C1.78054 14.4345 1.70301 14.0444 1.70313 13.6504V7.65037C1.70401 6.91981 1.97098 6.2146 2.4541 5.6666C2.93723 5.11861 3.60342 4.76536 4.3281 4.67291V10.6504C4.3281 12.9229 6.18059 14.7754 8.45313 14.7754ZM14.8281 4.83787H16.4181C16.372 4.77027 16.3192 4.70747 16.2606 4.65038L13.7031 2.09276C13.6479 2.03437 13.5848 1.98397 13.5156 1.943V3.52538C13.5173 3.87296 13.6561 4.20584 13.9019 4.45162C14.1477 4.6974 14.4805 4.83621 14.8281 4.83787ZM14.8281 5.96287C14.182 5.96162 13.5628 5.70442 13.1059 5.24757C12.6491 4.79072 12.3919 4.17146 12.3906 3.52538V1.65039H8.45313C8.05913 1.65028 7.66897 1.7278 7.30494 1.87852C6.94092 2.02925 6.61015 2.25022 6.33155 2.52882C6.05295 2.80741 5.83198 3.13817 5.68125 3.5022C5.53052 3.86622 5.453 4.25638 5.4531 4.65038V10.6504C5.453 11.0444 5.53053 11.4345 5.68126 11.7986C5.83199 12.1626 6.05297 12.4933 6.33156 12.7719C6.61016 13.0505 6.94092 13.2715 7.30495 13.4222C7.66897 13.573 8.05913 13.6505 8.45313 13.6504H13.7031C14.0971 13.6505 14.4873 13.573 14.8513 13.4222C15.2153 13.2715 15.5461 13.0505 15.8247 12.7719C16.1033 12.4933 16.3242 12.1626 16.475 11.7986C16.6257 11.4345 16.7032 11.0444 16.7031 10.6504V5.96287H14.8281Z" fill="#0C0C0C"/>
</svg>
