<svg width="20" height="20" viewBox="0 0 20 20" fill="none" xmlns="http://www.w3.org/2000/svg">
<path d="M10.6784 1.17896V1.74696C10.6784 2.08096 10.8264 2.39696 11.0834 2.61096L12.1514 3.50096C12.5934 3.86996 12.6864 4.51096 12.3674 4.99096L11.8574 5.75696C11.5797 6.17317 11.1711 6.48494 10.6964 6.64296L10.5534 6.69096C10.392 6.74491 10.2453 6.83533 10.1245 6.95519C10.0038 7.07506 9.91228 7.22114 9.85714 7.3821C9.80201 7.54305 9.78471 7.71455 9.80661 7.88328C9.8285 8.052 9.88899 8.21341 9.98338 8.35496C10.3524 8.90996 10.1524 9.66196 9.55638 9.95996L6.92837 11.274L7.35138 12.333C7.43669 12.548 7.44109 12.7868 7.36378 13.0049C7.28646 13.223 7.13267 13.4056 6.93093 13.5189C6.7292 13.6323 6.4932 13.6686 6.26673 13.6211C6.04026 13.5737 5.83867 13.4457 5.69937 13.261L5.02037 12.355C4.9053 12.2016 4.75294 12.0802 4.57776 12.0023C4.40258 11.9244 4.21039 11.8925 4.01944 11.9097C3.82848 11.927 3.6451 11.9927 3.4867 12.1007C3.3283 12.2088 3.20014 12.3555 3.11437 12.527L2.42837 13.899L1.81637 14.052M10.6784 1.17896C9.09743 1.0463 7.50951 1.33489 6.07552 2.01361C4.64153 2.69233 3.41243 3.73804 2.51277 5.04479C1.61311 6.35154 1.07486 7.87289 0.952564 9.45467C0.830268 11.0365 1.12827 12.6225 1.81637 14.052M10.6784 1.17896C12.2461 1.30971 13.7521 1.85009 15.0464 2.74433C16.3406 3.63856 17.3779 4.85642 18.0547 6.2765C18.7316 7.69658 19.0244 9.26926 18.9039 10.8378C18.7835 12.4063 18.2541 13.9159 17.3684 15.216L17.1914 14.687C17.0419 14.239 16.7553 13.8494 16.3721 13.5733C15.989 13.2973 15.5286 13.1488 15.0564 13.149H14.4284L14.1044 12.825C13.9416 12.6619 13.7424 12.54 13.5233 12.4691C13.3041 12.3982 13.0712 12.3804 12.8438 12.4172C12.6164 12.454 12.401 12.5444 12.2155 12.6808C12.0299 12.8173 11.8794 12.9959 11.7764 13.202L11.7404 13.275C11.6422 13.4716 11.5042 13.6457 11.3351 13.7861C11.1661 13.9266 10.9697 14.0304 10.7584 14.091L9.76838 14.373C9.21838 14.53 8.87438 15.075 8.96838 15.64L9.04138 16.078C9.12138 16.552 9.53138 16.899 10.0114 16.899C10.8574 16.899 11.6094 17.441 11.8764 18.244L12.0914 18.887M1.81637 14.052C2.71278 15.9158 4.22374 17.414 6.09507 18.2945C7.9664 19.1751 10.0839 19.3843 12.0914 18.887M12.0914 18.887C14.2413 18.3536 16.1195 17.0471 17.3674 15.217M13.6784 7.14896C13.6784 8.04496 13.2854 8.84896 12.6624 9.39896" stroke="#ED4650" stroke-width="1.5" stroke-linecap="round" stroke-linejoin="round"/>
</svg>
