<svg width="25" height="25" viewBox="0 0 25 25" fill="none" xmlns="http://www.w3.org/2000/svg">
<path d="M13.0801 20.1504H20.5801M5.58008 20.1504H6.97553C7.38318 20.1504 7.58701 20.1504 7.77882 20.102C7.94888 20.059 8.11146 19.9882 8.26058 19.8922C8.42877 19.7838 8.5729 19.6323 8.86115 19.3292L19.3301 8.32303C20.0205 7.59724 20.0205 6.42051 19.3301 5.69473C18.6398 4.96894 17.5205 4.96894 16.8301 5.69473L6.36113 16.7009C6.07288 17.004 5.92875 17.1555 5.82568 17.3323C5.7343 17.4891 5.66696 17.66 5.62613 17.8388C5.58008 18.0405 5.58008 18.2548 5.58008 18.6833V20.1504Z" stroke="#ED4650" stroke-width="2" stroke-linecap="round" stroke-linejoin="round"/>
</svg>
