<svg width="15" height="16" viewBox="0 0 15 16" fill="none" xmlns="http://www.w3.org/2000/svg">
<path fill-rule="evenodd" clip-rule="evenodd" d="M7.00056 1.92189C8.47484 0.450515 10.8651 0.450515 12.3394 1.92189C13.8137 3.39327 13.8137 5.77884 12.3394 7.25022L7.88619 11.6947C7.02677 12.5524 5.63337 12.5524 4.77394 11.6947C3.91452 10.8369 3.91452 9.44629 4.77394 8.58856L9.22717 4.14412C9.47173 3.90004 9.86824 3.90004 10.1128 4.14412C10.3574 4.38819 10.3574 4.78392 10.1128 5.028L5.65957 9.47244C5.28927 9.84202 5.28927 10.4412 5.65957 10.8108C6.02988 11.1804 6.63026 11.1804 7.00056 10.8108L11.4538 6.36634C12.439 5.38312 12.439 3.789 11.4538 2.80578C10.4686 1.82255 8.87135 1.82255 7.88619 2.80578L3.43296 7.25022C1.83293 8.8471 1.83293 11.4361 3.43296 13.033C5.03299 14.6299 7.62714 14.6299 9.22717 13.033L13.6804 8.58856C13.925 8.34448 14.3215 8.34448 14.566 8.58856C14.8106 8.83264 14.8106 9.22837 14.566 9.47244L10.1128 13.9169C8.02365 16.0019 4.63648 16.0019 2.54733 13.9169C0.458183 11.8319 0.458181 8.45137 2.54733 6.36634L7.00056 1.92189Z" fill="#0C0C0C"/>
</svg>
