<svg width="15" height="15" viewBox="0 0 15 15" fill="none" xmlns="http://www.w3.org/2000/svg">
<path d="M5.73177 7.14974V12.9831H2.66927C2.18671 12.9831 1.79427 12.5906 1.79427 12.1081V7.12028C1.88848 7.13953 1.98604 7.14974 2.08594 7.14974H5.73177ZM6.3151 7.14974V12.9831H8.0651V7.14974H6.3151ZM12.2943 7.14974H8.64844V12.9831H11.7109C12.1935 12.9831 12.5859 12.5906 12.5859 12.1081V7.12028C12.4917 7.13953 12.3942 7.14974 12.2943 7.14974ZM13.1693 4.52474V5.69141C13.1693 6.17397 12.7768 6.56641 12.2943 6.56641H2.08594C1.60338 6.56641 1.21094 6.17397 1.21094 5.69141V4.52474C1.21094 4.04218 1.60338 3.64974 2.08594 3.64974H4.85954C4.67565 3.40561 4.5651 3.10316 4.5651 2.77474C4.5651 1.97061 5.21931 1.31641 6.02344 1.31641C6.50075 1.31641 6.92396 1.54799 7.1901 1.90353C7.4564 1.54799 7.87946 1.31641 8.35677 1.31641C9.1609 1.31641 9.8151 1.97061 9.8151 2.77474C9.8151 3.10316 9.70456 3.40561 9.52067 3.64974H12.2943C12.7768 3.64974 13.1693 4.04218 13.1693 4.52474ZM7.48177 2.77474V3.64974H8.35677C8.83933 3.64974 9.23177 3.2573 9.23177 2.77474C9.23177 2.29218 8.83933 1.89974 8.35677 1.89974C7.87421 1.89974 7.48177 2.29218 7.48177 2.77474ZM6.02344 3.64974H6.89844V2.77474C6.89844 2.29218 6.506 1.89974 6.02344 1.89974C5.54088 1.89974 5.14844 2.29218 5.14844 2.77474C5.14844 3.2573 5.54088 3.64974 6.02344 3.64974Z" fill="#ED4650"/>
</svg>
