<svg width="17" height="17" viewBox="0 0 17 17" fill="none" xmlns="http://www.w3.org/2000/svg">
<path fill-rule="evenodd" clip-rule="evenodd" d="M13.7127 4.10138C14.6595 5.2525 15.2279 6.72649 15.2279 8.33325C15.2279 12.0151 12.2431 14.9999 8.5612 14.9999C4.8793 14.9999 1.89453 12.0151 1.89453 8.33325C1.89453 4.65135 4.8793 1.66658 8.5612 1.66658C10.1561 1.66658 11.6203 2.22667 12.7676 3.16089L13.1348 2.79367L13.3093 1.86409C13.3773 1.50222 13.7257 1.26394 14.0876 1.33188C14.4494 1.39982 14.6877 1.74824 14.6198 2.11011L14.5817 2.31273L14.7844 2.27469C15.1462 2.20675 15.4947 2.44503 15.5626 2.8069C15.6305 3.16877 15.3923 3.51719 15.0304 3.58513L14.0438 3.77035L13.7127 4.10138ZM11.8186 4.10991C10.9176 3.41396 9.78775 2.99991 8.5612 2.99991C5.61568 2.99991 3.22786 5.38773 3.22786 8.33325C3.22786 11.2788 5.61568 13.6666 8.5612 13.6666C11.5067 13.6666 13.8945 11.2788 13.8945 8.33325C13.8945 7.09485 13.4725 5.95504 12.7643 5.04982L11.8121 6.00207C12.2836 6.65842 12.5612 7.46341 12.5612 8.33325C12.5612 10.5424 10.7703 12.3332 8.5612 12.3332C6.35206 12.3332 4.5612 10.5424 4.5612 8.33325C4.5612 6.12411 6.35206 4.33325 8.5612 4.33325C9.41913 4.33325 10.214 4.60335 10.8654 5.06315L11.8186 4.10991ZM9.90126 6.02724C9.50751 5.79793 9.0497 5.66658 8.5612 5.66658C7.08844 5.66658 5.89453 6.86049 5.89453 8.33325C5.89453 9.80601 7.08844 10.9999 8.5612 10.9999C10.034 10.9999 11.2279 9.80601 11.2279 8.33325C11.2279 7.83267 11.0899 7.36431 10.85 6.9641L9.84438 7.96974C9.87705 8.0853 9.89453 8.20723 9.89453 8.33325C9.89453 9.06963 9.29758 9.66658 8.5612 9.66658C7.82482 9.66658 7.22786 9.06963 7.22786 8.33325C7.22786 7.59687 7.82482 6.99991 8.5612 6.99991C8.67402 6.99991 8.78357 7.01393 8.8882 7.0403L9.90126 6.02724Z" fill="#ED4650"/>
</svg>
