<svg width="20" height="20" viewBox="0 0 20 20" fill="none" xmlns="http://www.w3.org/2000/svg">
<g id="give-money 1" clip-path="url(#clip0_147_1310)">
<g id="g4077">
<g id="g4079">
<g id="Clip path group">
<mask id="mask0_147_1310" style="mask-type:luminance" maskUnits="userSpaceOnUse" x="0" y="0" width="20" height="20">
<g id="clipPath4085">
<path id="path4083" d="M0 1.90735e-06H20V20H0V1.90735e-06Z" fill="white"/>
</g>
</mask>
<g mask="url(#mask0_147_1310)">
<g id="g4081">
<g id="g4087">
<path id="path4089" d="M7.26434 10.291C7.26434 9.35684 6.5084 8.6009 5.57422 8.6009" stroke="#0C0C0C" stroke-width="0.8" stroke-miterlimit="10" stroke-linecap="round" stroke-linejoin="round"/>
</g>
<g id="g4091">
<path id="path4093" d="M17.2676 10.291C17.2676 9.35684 18.0235 8.6009 18.9577 8.6009" stroke="#0C0C0C" stroke-width="0.8" stroke-miterlimit="10" stroke-linecap="round" stroke-linejoin="round"/>
</g>
<g id="g4095">
<path id="path4097" d="M17.2676 3.15168C17.2676 4.08586 18.0235 4.8418 18.9577 4.8418" stroke="#0C0C0C" stroke-width="0.8" stroke-miterlimit="10" stroke-linecap="round" stroke-linejoin="round"/>
</g>
<g id="g4103">
<path id="path4105" d="M12.2656 3.12531H18.3506C18.7006 3.12531 18.9844 3.40906 18.9844 3.7591V9.68359C18.9844 10.0336 18.7006 10.3174 18.3506 10.3174H14.0234" stroke="#0C0C0C" stroke-width="0.8" stroke-miterlimit="10" stroke-linecap="round" stroke-linejoin="round"/>
</g>
<g id="g4107">
<path id="path4109" d="M10.5078 10.3174H6.18066C5.83066 10.3174 5.54688 10.0336 5.54688 9.68359V6.29164" stroke="#0C0C0C" stroke-width="0.8" stroke-miterlimit="10" stroke-linecap="round" stroke-linejoin="round"/>
</g>
<g id="g4111">
<path id="path4113" d="M10.5834 5.83551C10.9024 5.23285 11.5358 4.82223 12.2651 4.82223C13.3152 4.82223 14.1665 5.67352 14.1665 6.72359C14.1665 7.77371 13.3152 8.625 12.2651 8.625C11.4597 8.625 10.7713 8.12426 10.4941 7.41711" stroke="#0C0C0C" stroke-width="0.8" stroke-miterlimit="10" stroke-linecap="round" stroke-linejoin="round"/>
</g>
<g id="g4119">
<path id="path4121" d="M3.82812 1.01536H9.49242C10.0487 1.01536 10.5893 1.19958 11.0298 1.53926L13.0859 3.12473H8.83824C8.39039 3.12473 8.02734 3.48778 8.02734 3.93563C8.02734 4.23067 8.18762 4.50243 8.44578 4.6452L10.4555 5.75669C10.8721 5.98712 11.0574 6.4879 10.891 6.93403C10.7292 7.3677 10.2814 7.62454 9.82547 7.54528L8.41441 7.29993C7.10027 7.07141 5.85371 6.55251 4.76562 5.78098H3.82812" stroke="#0C0C0C" stroke-width="0.8" stroke-miterlimit="10" stroke-linecap="round" stroke-linejoin="round"/>
</g>
<path id="path4123" d="M3.82812 6.64062H0.390625V0.390626H3.82812V6.64062Z" stroke="#0C0C0C" stroke-width="0.8" stroke-miterlimit="10" stroke-linecap="round" stroke-linejoin="round"/>
<g id="g4125">
<path id="path4127" d="M16.1693 19.1406H8.51655C7.16311 19.1406 5.8651 18.603 4.90807 17.6459L2.78592 15.5238C2.40604 15.1439 2.40748 14.5275 2.78916 14.1494C3.16834 13.7737 3.77987 13.7752 4.15725 14.1527L6.05616 16.0521C6.69256 16.6887 7.55576 17.0463 8.45588 17.0463H10.5661" stroke="#0C0C0C" stroke-width="0.8" stroke-miterlimit="10" stroke-linecap="round" stroke-linejoin="round"/>
</g>
<g id="g4129">
<path id="path4131" d="M12.8709 17.0459H8.61734C8.08332 17.0459 7.65039 16.613 7.65039 16.0789C7.65039 15.5449 8.08332 15.112 8.61734 15.112H11.0837L11.5938 14.5064C12.2286 13.7528 13.1637 13.3179 14.149 13.3179C14.8539 13.3179 15.5407 13.5408 16.1112 13.9548L16.168 13.9961" stroke="#0C0C0C" stroke-width="0.8" stroke-miterlimit="10" stroke-linecap="round" stroke-linejoin="round"/>
</g>
<g id="g4133">
<path id="path4135" d="M19.6094 19.6094H16.1719V13.3594H19.6094V19.6094Z" stroke="#0C0C0C" stroke-width="0.8" stroke-miterlimit="10" stroke-linecap="round" stroke-linejoin="round"/>
</g>
</g>
</g>
</g>
</g>
</g>
</g>
<defs>
<clipPath id="clip0_147_1310">
<rect width="20" height="20" fill="white"/>
</clipPath>
</defs>
</svg>
