<svg width="25" height="25" viewBox="0 0 25 25" fill="none" xmlns="http://www.w3.org/2000/svg">
<path d="M6.12868 2.59544C6.45212 2.33669 6.50457 1.86472 6.24581 1.54127C5.98705 1.21783 5.51508 1.16538 5.19163 1.42414L2.69163 3.42414C2.36819 3.6829 2.31575 4.15487 2.5745 4.47831C2.83326 4.80176 3.30523 4.8542 3.62868 4.59544L6.12868 2.59544Z" fill="#999999"/>
<path d="M19.1287 1.42414C18.8052 1.16538 18.3333 1.21783 18.0745 1.54127C17.8157 1.86472 17.8682 2.33669 18.1916 2.59544L20.6916 4.59544C21.0151 4.8542 21.4871 4.80176 21.7458 4.47831C22.0046 4.15487 21.9521 3.6829 21.6287 3.42414L19.1287 1.42414Z" fill="#999999"/>
<path fill-rule="evenodd" clip-rule="evenodd" d="M12.1602 2.0098C6.22309 2.0098 1.41016 6.82273 1.41016 12.7598C1.41016 18.6969 6.22309 23.5098 12.1602 23.5098C18.0972 23.5098 22.9102 18.6969 22.9102 12.7598C22.9102 6.82273 18.0972 2.0098 12.1602 2.0098ZM12.9102 8.7598C12.9102 8.34558 12.5744 8.0098 12.1602 8.0098C11.7459 8.0098 11.4102 8.34558 11.4102 8.7598L11.4102 12.2598C11.4102 13.5024 12.4175 14.5098 13.6602 14.5098H15.1602C15.5744 14.5098 15.9102 14.174 15.9102 13.7598C15.9102 13.3456 15.5744 13.0098 15.1602 13.0098H13.6602C13.2459 13.0098 12.9102 12.674 12.9102 12.2598L12.9102 8.7598Z" fill="#999999"/>
</svg>
