<svg width="25" height="25" viewBox="0 0 25 25" fill="none" xmlns="http://www.w3.org/2000/svg">
<path fill-rule="evenodd" clip-rule="evenodd" d="M6.51583 5.72532C3.84902 7.66288 2.51561 8.63166 1.99191 10.0627C1.94989 10.1775 1.91211 10.2938 1.87862 10.4113C1.46117 11.8769 1.97049 13.4444 2.98912 16.5794C4.00776 19.7145 4.51707 21.282 5.71622 22.2223C5.81241 22.2977 5.91134 22.3696 6.01281 22.4377C7.27763 23.2876 8.92581 23.2876 12.2222 23.2876C15.5185 23.2876 17.1667 23.2876 18.4315 22.4377C18.533 22.3696 18.6319 22.2977 18.7281 22.2223C19.9273 21.282 20.4366 19.7145 21.4552 16.5794C22.4739 13.4444 22.9832 11.8769 22.5657 10.4113C22.5322 10.2938 22.4945 10.1775 22.4524 10.0627C21.9287 8.63166 20.5953 7.66288 17.9285 5.72533C15.2617 3.78778 13.9283 2.81899 12.4055 2.76313C12.2833 2.75865 12.161 2.75865 12.0389 2.76313C10.5161 2.81899 9.18265 3.78777 6.51583 5.72532ZM10.2222 17.8294C9.80795 17.8294 9.47217 18.1652 9.47217 18.5794C9.47217 18.9936 9.80795 19.3294 10.2222 19.3294H14.2222C14.6364 19.3294 14.9722 18.9936 14.9722 18.5794C14.9722 18.1652 14.6364 17.8294 14.2222 17.8294H10.2222Z" fill="#ED4650"/>
</svg>
