<svg width="20" height="20" viewBox="0 0 20 20" fill="none" xmlns="http://www.w3.org/2000/svg">
<path d="M10.7715 9.23438C10.7715 8.85469 10.4637 8.54688 10.084 8.54688C9.7043 8.54688 9.39648 8.85469 9.39648 9.23438V14.7344C9.39648 15.1141 9.7043 15.4219 10.084 15.4219C10.4637 15.4219 10.7715 15.1141 10.7715 14.7344V9.23438Z" fill="#0C0C0C"/>
<path fill-rule="evenodd" clip-rule="evenodd" d="M10.0846 0.296875C4.64233 0.296875 0.230469 4.70874 0.230469 10.151C0.230469 15.5934 4.64233 20.0052 10.0846 20.0052C15.527 20.0052 19.9388 15.5934 19.9388 10.151C19.9388 4.70874 15.527 0.296875 10.0846 0.296875ZM1.60547 10.151C1.60547 5.46813 5.40172 1.67188 10.0846 1.67188C14.7675 1.67188 18.5638 5.46813 18.5638 10.151C18.5638 14.8339 14.7675 18.6302 10.0846 18.6302C5.40172 18.6302 1.60547 14.8339 1.60547 10.151Z" fill="#0C0C0C"/>
<path d="M11.0013 6.48307C11.0013 6.98933 10.5909 7.39974 10.0846 7.39974C9.57836 7.39974 9.16797 6.98933 9.16797 6.48307C9.16797 5.97682 9.57836 5.56641 10.0846 5.56641C10.5909 5.56641 11.0013 5.97682 11.0013 6.48307Z" fill="#0C0C0C"/>
</svg>
