<svg width="25" height="25" viewBox="0 0 25 25" fill="none" xmlns="http://www.w3.org/2000/svg">
<path d="M12.1621 9.15039V12.9004M21.1621 12.1504C21.1621 13.3323 20.9293 14.5026 20.477 15.5945C20.0247 16.6865 19.3618 17.6786 18.5261 18.5144C17.6903 19.3501 16.6982 20.013 15.6063 20.4653C14.5143 20.9176 13.344 21.1504 12.1621 21.1504C10.9802 21.1504 9.80989 20.9176 8.71796 20.4653C7.62603 20.013 6.63388 19.3501 5.79815 18.5144C4.96242 17.6786 4.29949 16.6865 3.84719 15.5945C3.3949 14.5026 3.16211 13.3323 3.16211 12.1504C3.16211 9.76344 4.11032 7.47426 5.79815 5.78643C7.48598 4.0986 9.77516 3.15039 12.1621 3.15039C14.5491 3.15039 16.8382 4.0986 18.5261 5.78643C20.2139 7.47426 21.1621 9.76344 21.1621 12.1504ZM12.1621 15.9004H12.1701V15.9084H12.1621V15.9004Z" stroke="#ED4650" stroke-width="1.5" stroke-linecap="round" stroke-linejoin="round"/>
</svg>
