<svg width="46" height="44" viewBox="0 0 46 44" fill="none" xmlns="http://www.w3.org/2000/svg">
<ellipse cx="15.602" cy="15.5976" rx="15.602" ry="15.5976" transform="matrix(0.723426 0.690401 -0.720007 0.693967 23.3594 0.164062)" fill="#ED4650"/>
<path d="M19.5849 20.0415L24.7587 17.5542C28.2423 15.8878 29.6659 17.2531 27.9241 20.5901L27.1543 22.0626L27.9241 23.5352C29.6659 26.8721 28.238 28.2415 24.7587 26.571L19.5849 24.092C17.2668 22.9742 17.2625 21.1552 19.5849 20.0415ZM21.7611 22.3926L25.0383 22.4008C25.1673 22.4008 25.2791 22.3513 25.3608 22.273C25.4425 22.1946 25.4942 22.0874 25.4942 21.9636C25.4942 21.7244 25.2877 21.5264 25.0383 21.5264L21.7611 21.5181C21.5116 21.5181 21.3052 21.7161 21.3052 21.9554C21.3052 22.1946 21.5116 22.3926 21.7611 22.3926Z" fill="white"/>
</svg>
