<svg width="37" height="37" viewBox="0 0 37 37" fill="none" xmlns="http://www.w3.org/2000/svg">
<path d="M18.2461 4.50977C11.2156 4.50977 5.49609 10.2293 5.49609 17.2598C5.49609 24.7343 12.4396 29.3212 17.0341 32.3557L17.8291 32.8838C17.9551 32.9678 18.1006 33.0098 18.2446 33.0098C18.3886 33.0098 18.5341 32.9678 18.6601 32.8838L19.4551 32.3557C24.0496 29.3212 30.9931 24.7343 30.9931 17.2598C30.9961 10.2293 25.2766 4.50977 18.2461 4.50977ZM22.7911 16.0553L17.7916 21.0548C17.5726 21.2738 17.2846 21.3848 16.9966 21.3848C16.7086 21.3848 16.4206 21.2753 16.2016 21.0548L13.7011 18.5543C13.2616 18.1148 13.2616 17.4023 13.7011 16.9628C14.1406 16.5233 14.8531 16.5233 15.2926 16.9628L16.9966 18.6667L21.2011 14.4623C21.6406 14.0228 22.3531 14.0228 22.7926 14.4623C23.2321 14.9018 23.2306 15.6158 22.7911 16.0553Z" fill="#ED4650"/>
</svg>
