<svg width="23" height="23" viewBox="0 0 23 23" fill="none" xmlns="http://www.w3.org/2000/svg">
<g clip-path="url(#clip0_12_1276)">
<path d="M6.09375 9.31771V7.48438C6.09375 4.45021 7.01042 1.98438 11.5938 1.98438C16.1771 1.98438 17.0938 4.45021 17.0938 7.48438V9.31771" stroke="#ED4650" stroke-width="1.6" stroke-linecap="round" stroke-linejoin="round"/>
<path d="M16.1777 20.3164H7.01107C3.3444 20.3164 2.42773 19.3997 2.42773 15.7331V13.8997C2.42773 10.2331 3.3444 9.31641 7.01107 9.31641H16.1777C19.8444 9.31641 20.7611 10.2331 20.7611 13.8997V15.7331C20.7611 19.3997 19.8444 20.3164 16.1777 20.3164Z" stroke="#ED4650" stroke-width="1.6" stroke-linecap="round" stroke-linejoin="round"/>
<path d="M15.258 14.8177H15.2662" stroke="#ED4650" stroke-width="2" stroke-linecap="round" stroke-linejoin="round"/>
<path d="M11.59 14.8177H11.5983" stroke="#ED4650" stroke-width="2" stroke-linecap="round" stroke-linejoin="round"/>
<path d="M7.92205 14.8177H7.93028" stroke="#ED4650" stroke-width="2" stroke-linecap="round" stroke-linejoin="round"/>
</g>
<defs>
<clipPath id="clip0_12_1276">
<rect width="22" height="22" fill="white" transform="translate(0.59375 0.150391)"/>
</clipPath>
</defs>
</svg>
