<svg width="38" height="38" viewBox="0 0 38 38" fill="none" xmlns="http://www.w3.org/2000/svg">
<g id="lock (1) 1" clip-path="url(#clip0_382_1625)">
<g id="Layer 2">
<g id="lock">
<path id="background" d="M19 38C29.4934 38 38 29.4934 38 19C38 8.50659 29.4934 0 19 0C8.50659 0 0 8.50659 0 19C0 29.4934 8.50659 38 19 38Z" fill="#F44336"/>
<path id="Vector" d="M24.0925 17.7806V13.9472C24.0925 13.2949 23.9641 12.6491 23.7145 12.0465C23.4649 11.4439 23.099 10.8964 22.6378 10.4352C22.1766 9.97398 21.6291 9.60814 21.0265 9.35854C20.4239 9.10894 19.7781 8.98047 19.1258 8.98047H18.875C17.5577 8.98047 16.2944 9.50375 15.363 10.4352C14.4315 11.3666 13.9082 12.6299 13.9082 13.9472V17.7806C13.2804 17.9234 12.7196 18.2753 12.3179 18.7785C11.9162 19.2817 11.6974 19.9065 11.6973 20.5504V26.1792C11.6973 26.9325 11.9965 27.6549 12.5292 28.1876C13.0619 28.7203 13.7843 29.0195 14.5376 29.0195H23.4632C24.2165 29.0195 24.9389 28.7203 25.4716 28.1876C26.0043 27.6549 26.3035 26.9325 26.3035 26.1792V20.5504C26.3034 19.9065 26.0846 19.2817 25.6829 18.7785C25.2812 18.2753 24.7204 17.9234 24.0925 17.7806ZM18.875 10.9881H19.1258C19.9103 10.9891 20.6624 11.3011 21.2171 11.8559C21.7719 12.4106 22.0839 13.1627 22.0849 13.9472V17.7093H15.9159V13.9472C15.9168 13.1627 16.2289 12.4106 16.7836 11.8559C17.3384 11.3011 18.0905 10.9891 18.875 10.9881Z" fill="white"/>
</g>
</g>
</g>
<defs>
<clipPath id="clip0_382_1625">
<rect width="38" height="38" fill="white"/>
</clipPath>
</defs>
</svg>
