<svg width="25" height="25" viewBox="0 0 25 25" fill="none" xmlns="http://www.w3.org/2000/svg">
<path fill-rule="evenodd" clip-rule="evenodd" d="M22.3027 5.48981C22.8477 6.55937 22.8477 7.9595 22.8477 10.7598V11.944C22.8477 13.6331 22.8477 14.4777 22.6457 15.1666C22.1665 16.8007 20.8886 18.0786 19.2545 18.5578C18.5656 18.7598 17.721 18.7598 16.0319 18.7598H15.4831L15.418 18.7599C14.3977 18.7664 13.4039 19.0849 12.5699 19.6726L12.5169 19.7103L9.90614 21.5751C9.01115 22.2144 7.83508 21.2912 8.24356 20.27C8.53291 19.5466 8.00017 18.7598 7.22107 18.7598H6.61931C4.53628 18.7598 2.84766 17.0711 2.84766 14.9881V10.7598C2.84766 7.9595 2.84766 6.55937 3.39262 5.48981C3.87199 4.549 4.63689 3.7841 5.5777 3.30473C6.64726 2.75977 8.04739 2.75977 10.8477 2.75977H14.8477C17.6479 2.75977 19.048 2.75977 20.1176 3.30473C21.0584 3.7841 21.8233 4.549 22.3027 5.48981ZM9.84766 10.7598C9.84766 11.3121 9.39994 11.7598 8.84766 11.7598C8.29537 11.7598 7.84766 11.3121 7.84766 10.7598C7.84766 10.2075 8.29537 9.75977 8.84766 9.75977C9.39994 9.75977 9.84766 10.2075 9.84766 10.7598ZM13.8477 10.7598C13.8477 11.3121 13.3999 11.7598 12.8477 11.7598C12.2954 11.7598 11.8477 11.3121 11.8477 10.7598C11.8477 10.2075 12.2954 9.75977 12.8477 9.75977C13.3999 9.75977 13.8477 10.2075 13.8477 10.7598ZM16.8477 11.7598C17.3999 11.7598 17.8477 11.3121 17.8477 10.7598C17.8477 10.2075 17.3999 9.75977 16.8477 9.75977C16.2954 9.75977 15.8477 10.2075 15.8477 10.7598C15.8477 11.3121 16.2954 11.7598 16.8477 11.7598Z" fill="#999999"/>
</svg>
