<svg width="22" height="19" viewBox="0 0 22 19" fill="none" xmlns="http://www.w3.org/2000/svg">
<path d="M1.60742 15.2051C6.94303 15.2007 12.2554 15.9073 17.4044 17.3061C18.1314 17.5041 18.8574 16.9641 18.8574 16.2101V15.2051M3.10742 0.955078V1.70508C3.10742 1.90399 3.0284 2.09476 2.88775 2.23541C2.7471 2.37606 2.55633 2.45508 2.35742 2.45508H1.60742M1.60742 2.45508V2.08008C1.60742 1.45908 2.11142 0.955078 2.73242 0.955078H19.6074M1.60742 2.45508V11.4551M19.6074 0.955078V1.70508C19.6074 2.11908 19.9434 2.45508 20.3574 2.45508H21.1074M19.6074 0.955078H19.9824C20.6034 0.955078 21.1074 1.45908 21.1074 2.08008V11.8301C21.1074 12.4511 20.6034 12.9551 19.9824 12.9551H19.6074M1.60742 11.4551V11.8301C1.60742 12.1284 1.72595 12.4146 1.93693 12.6256C2.14791 12.8366 2.43405 12.9551 2.73242 12.9551H3.10742M1.60742 11.4551H2.35742C2.55633 11.4551 2.7471 11.5341 2.88775 11.6747C3.0284 11.8154 3.10742 12.0062 3.10742 12.2051V12.9551M19.6074 12.9551V12.2051C19.6074 12.0062 19.6864 11.8154 19.8271 11.6747C19.9677 11.5341 20.1585 11.4551 20.3574 11.4551H21.1074M19.6074 12.9551H3.10742M14.3574 6.95508C14.3574 7.75073 14.0414 8.51379 13.4787 9.0764C12.9161 9.63901 12.1531 9.95508 11.3574 9.95508C10.5618 9.95508 9.79871 9.63901 9.2361 9.0764C8.67349 8.51379 8.35742 7.75073 8.35742 6.95508C8.35742 6.15943 8.67349 5.39637 9.2361 4.83376C9.79871 4.27115 10.5618 3.95508 11.3574 3.95508C12.1531 3.95508 12.9161 4.27115 13.4787 4.83376C14.0414 5.39637 14.3574 6.15943 14.3574 6.95508ZM17.3574 6.95508H17.3654V6.96308H17.3574V6.95508ZM5.35742 6.95508H5.36542V6.96308H5.35742V6.95508Z" stroke="#ED4650" stroke-width="1.5" stroke-linecap="round" stroke-linejoin="round"/>
</svg>
