<svg width="19" height="20" viewBox="0 0 19 20" fill="none" xmlns="http://www.w3.org/2000/svg">
<path d="M12.1124 15.2343C13.9756 15.0137 15.8062 14.574 17.5664 13.9243C16.0757 12.2732 15.2521 10.1268 15.2554 7.90234V7.20234V7.15234C15.2554 5.56104 14.6232 4.03492 13.498 2.9097C12.3728 1.78448 10.8467 1.15234 9.25536 1.15234C7.66406 1.15234 6.13794 1.78448 5.01272 2.9097C3.8875 4.03492 3.25536 5.56104 3.25536 7.15234V7.90234C3.25838 10.127 2.43435 12.2733 0.943359 13.9243C2.67636 14.5643 4.50336 15.0093 6.39836 15.2343M12.1124 15.2343C10.2143 15.4595 8.29637 15.4595 6.39836 15.2343M12.1124 15.2343C12.2565 15.6842 12.2923 16.1617 12.2169 16.6281C12.1416 17.0944 11.9572 17.5363 11.6787 17.9179C11.4003 18.2995 11.0357 18.6099 10.6146 18.824C10.1934 19.038 9.72774 19.1495 9.25536 19.1495C8.78298 19.1495 8.31728 19.038 7.89617 18.824C7.47505 18.6099 7.11043 18.2995 6.83198 17.9179C6.55353 17.5363 6.36912 17.0944 6.29377 16.6281C6.21842 16.1617 6.25426 15.6842 6.39836 15.2343" stroke="#ED4650" stroke-width="1.5" stroke-linecap="round" stroke-linejoin="round"/>
</svg>
