<svg width="23" height="23" viewBox="0 0 23 23" fill="none" xmlns="http://www.w3.org/2000/svg">
<path d="M14.5141 17.5677C14.5141 19.0865 13.2829 20.3177 11.7641 20.3177C10.2454 20.3177 9.01415 19.0865 9.01415 17.5677M13.4109 5.86972C13.8101 5.4573 14.0558 4.89536 14.0558 4.27604C14.0558 3.01039 13.0298 1.98438 11.7641 1.98438C10.4985 1.98438 9.47248 3.01039 9.47248 4.27604C9.47248 4.89536 9.71815 5.4573 10.1174 5.86972M17.2641 10.4177C17.2641 9.15351 16.6847 7.94109 15.6532 7.04717C14.6218 6.15324 13.2228 5.65104 11.7641 5.65104C10.3055 5.65104 8.90651 6.15324 7.87506 7.04717C6.84361 7.94109 6.26415 9.15351 6.26415 10.4177C6.26415 12.5094 5.74543 14.0391 5.09821 15.1337C4.36054 16.3812 3.99171 17.005 4.00627 17.154C4.02294 17.3244 4.05362 17.3782 4.19188 17.4793C4.31272 17.5677 4.91987 17.5677 6.13415 17.5677H17.3941C18.6084 17.5677 19.2156 17.5677 19.3364 17.4793C19.4747 17.3782 19.5054 17.3244 19.522 17.154C19.5366 17.005 19.1678 16.3812 18.4301 15.1337C17.7829 14.0391 17.2641 12.5094 17.2641 10.4177Z" stroke="#0C0C0C" stroke-width="1.2" stroke-linecap="round" stroke-linejoin="round"/>
</svg>
