<svg width="25" height="25" viewBox="0 0 25 25" fill="none" xmlns="http://www.w3.org/2000/svg">
<g clip-path="url(#clip0_12_1221)">
<path d="M22.4993 9.51264C22.0682 9.19302 21.7009 8.7954 21.4163 8.34039C21.2835 7.79255 21.2563 7.22442 21.336 6.66639C21.4005 5.62089 21.4733 4.43589 20.7023 3.66639C19.9313 2.89689 18.7478 2.96889 17.7023 3.03264C17.1442 3.11195 16.5761 3.08446 16.0283 2.95164C15.5727 2.66697 15.1746 2.29936 14.8545 1.86789C14.1503 1.06314 13.3523 0.150391 12.2168 0.150391C11.0813 0.150391 10.2833 1.06314 9.57905 1.86789C9.25921 2.2988 8.86163 2.66611 8.4068 2.95089C7.85896 3.0837 7.29083 3.11094 6.7328 3.03114C5.68805 2.96664 4.50305 2.89464 3.7328 3.66564C2.96255 4.43664 3.0338 5.62089 3.0983 6.66564C3.17809 7.22367 3.15086 7.7918 3.01805 8.33964C2.73334 8.79498 2.36573 9.19287 1.9343 9.51264C1.1288 10.2169 0.216797 11.0149 0.216797 12.1504C0.216797 13.2859 1.1288 14.0839 1.9343 14.7881C2.36539 15.1078 2.73274 15.5054 3.0173 15.9604C3.15013 16.5085 3.17737 17.0769 3.09755 17.6351C3.03305 18.6799 2.9603 19.8649 3.7313 20.6351C4.5023 21.4054 5.6858 21.3334 6.7313 21.2689C7.28939 21.1896 7.85747 21.2171 8.4053 21.3499C8.86054 21.6344 9.25841 22.0018 9.5783 22.4329C10.2825 23.2376 11.0783 24.1504 12.216 24.1504C13.3538 24.1504 14.1495 23.2376 14.8538 22.4329C15.1736 22.002 15.5712 21.6347 16.026 21.3499C16.5739 21.2171 17.142 21.1898 17.7 21.2696C18.7448 21.3341 19.9305 21.4069 20.7 20.6351C21.4695 19.8634 21.399 18.6799 21.3345 17.6351C21.2547 17.0769 21.282 16.5085 21.4148 15.9604C21.6994 15.5054 22.0667 15.1078 22.4978 14.7881C23.3033 14.0839 24.2153 13.2881 24.2153 12.1504C24.2153 11.0126 23.3048 10.2169 22.4993 9.51264ZM21.5123 13.6594C20.8955 14.1164 20.3891 14.7058 20.0303 15.3844C19.7937 16.1408 19.7284 16.9404 19.839 17.7251C19.8833 18.4541 19.9343 19.2806 19.641 19.5731C19.3478 19.8656 18.522 19.8139 17.793 19.7711C17.0083 19.6608 16.2088 19.7261 15.4523 19.9624C14.7739 20.3214 14.1845 20.8278 13.7273 21.4444C13.2075 22.0384 12.6713 22.6504 12.2168 22.6504C11.7623 22.6504 11.226 22.0384 10.7078 21.4459C10.2506 20.8293 9.66122 20.3229 8.9828 19.9639C8.53046 19.795 8.04933 19.7168 7.5668 19.7336C7.2593 19.7336 6.9473 19.7531 6.6383 19.7719C5.90855 19.8176 5.08355 19.8679 4.7903 19.5746C4.49705 19.2814 4.5488 18.4556 4.59305 17.7274C4.70373 16.9424 4.6384 16.1425 4.4018 15.3859C4.04297 14.7073 3.53655 14.1179 2.9198 13.6609C2.3288 13.1404 1.7168 12.6049 1.7168 12.1504C1.7168 11.6959 2.3288 11.1604 2.9213 10.6414C3.53805 10.1844 4.04447 9.59495 4.4033 8.91639C4.63989 8.15999 4.70522 7.36042 4.59455 6.57564C4.5503 5.84514 4.4993 5.01864 4.7918 4.72539C5.0843 4.43214 5.9108 4.48389 6.6398 4.52739C7.42456 4.63864 8.22425 4.5733 8.98055 4.33614C9.65897 3.9771 10.2484 3.47071 10.7055 2.85414C11.226 2.26239 11.7623 1.65039 12.2168 1.65039C12.6713 1.65039 13.2075 2.26239 13.7258 2.85489C14.183 3.47146 14.7724 3.97785 15.4508 4.33689C16.2074 4.57379 17.0072 4.63938 17.7923 4.52889C18.5228 4.48389 19.347 4.43289 19.6403 4.72614C19.9335 5.01939 19.8818 5.84514 19.8375 6.57339C19.7269 7.35842 19.7922 8.15823 20.0288 8.91489C20.3876 9.59345 20.894 10.1829 21.5108 10.6399C22.1048 11.1604 22.7168 11.6959 22.7168 12.1504C22.7168 12.6049 22.1048 13.1404 21.5123 13.6594Z" fill="#ED4650"/>
<path d="M11.4668 9.15039C11.4668 8.70538 11.3348 8.27037 11.0876 7.90036C10.8404 7.53035 10.489 7.24196 10.0778 7.07166C9.6667 6.90137 9.2143 6.85681 8.77784 6.94362C8.34139 7.03044 7.94048 7.24473 7.62581 7.5594C7.31114 7.87407 7.09685 8.27498 7.01003 8.71144C6.92321 9.1479 6.96777 9.6003 7.13807 10.0114C7.30837 10.4226 7.59675 10.774 7.96676 11.0212C8.33678 11.2684 8.77179 11.4004 9.2168 11.4004C9.81354 11.4004 10.3858 11.1633 10.8078 10.7414C11.2297 10.3194 11.4668 9.74713 11.4668 9.15039ZM8.4668 9.15039C8.4668 9.00206 8.51078 8.85705 8.5932 8.73371C8.67561 8.61038 8.79274 8.51425 8.92979 8.45748C9.06683 8.40072 9.21763 8.38586 9.36312 8.4148C9.5086 8.44374 9.64224 8.51517 9.74713 8.62006C9.85202 8.72495 9.92345 8.85859 9.95239 9.00407C9.98133 9.14956 9.96647 9.30036 9.90971 9.4374C9.85294 9.57445 9.75681 9.69158 9.63348 9.77399C9.51014 9.85641 9.36513 9.90039 9.2168 9.90039C9.01789 9.90039 8.82712 9.82137 8.68647 9.68072C8.54582 9.54007 8.4668 9.3493 8.4668 9.15039Z" fill="#ED4650"/>
<path d="M15.2168 12.9004C14.7718 12.9004 14.3368 13.0324 13.9668 13.2796C13.5968 13.5268 13.3084 13.8782 13.1381 14.2894C12.9678 14.7005 12.9232 15.1529 13.01 15.5893C13.0968 16.0258 13.3111 16.4267 13.6258 16.7414C13.9405 17.056 14.3414 17.2703 14.7778 17.3572C15.2143 17.444 15.6667 17.3994 16.0778 17.2291C16.489 17.0588 16.8404 16.7704 17.0876 16.4004C17.3348 16.0304 17.4668 15.5954 17.4668 15.1504C17.4668 14.5537 17.2297 13.9814 16.8078 13.5594C16.3858 13.1374 15.8135 12.9004 15.2168 12.9004ZM15.2168 15.9004C15.0685 15.9004 14.9235 15.8564 14.8001 15.774C14.6768 15.6916 14.5807 15.5744 14.5239 15.4374C14.4671 15.3004 14.4523 15.1496 14.4812 15.0041C14.5101 14.8586 14.5816 14.7249 14.6865 14.6201C14.7914 14.5152 14.925 14.4437 15.0705 14.4148C15.216 14.3859 15.3668 14.4007 15.5038 14.4575C15.6409 14.5142 15.758 14.6104 15.8404 14.7337C15.9228 14.857 15.9668 15.0021 15.9668 15.1504C15.9668 15.3493 15.8878 15.5401 15.7471 15.6807C15.6065 15.8214 15.4157 15.9004 15.2168 15.9004Z" fill="#ED4650"/>
<path d="M16.4799 7.88685C16.4148 7.81337 16.3352 7.75424 16.246 7.71321C16.1569 7.67218 16.0602 7.65016 15.9621 7.64853C15.8639 7.64691 15.7665 7.66573 15.6761 7.70379C15.5856 7.74185 15.5041 7.79831 15.4366 7.8696L7.93663 15.3696C7.26538 16.0408 8.31163 17.1178 8.99713 16.4301L16.4971 8.9301C16.5677 8.86224 16.6235 8.78057 16.6611 8.69017C16.6987 8.59978 16.7173 8.50261 16.7157 8.40472C16.7141 8.30682 16.6923 8.21032 16.6517 8.12122C16.6112 8.03212 16.5527 7.95233 16.4799 7.88685Z" fill="#ED4650"/>
</g>
<defs>
<clipPath id="clip0_12_1221">
<rect width="24" height="24" fill="white" transform="translate(0.216797 0.150391)"/>
</clipPath>
</defs>
</svg>
