<svg width="16" height="16" viewBox="0 0 16 16" fill="none" xmlns="http://www.w3.org/2000/svg">
<path fill-rule="evenodd" clip-rule="evenodd" d="M13.9993 5.33333H1.99935V7.33333C1.99935 7.70152 2.29783 8 2.66602 8H13.3327C13.7009 8 13.9993 7.70152 13.9993 7.33333V5.33333ZM4.66602 4C4.66602 2.89543 5.56145 2 6.66602 2H9.33268C10.4373 2 11.3327 2.89543 11.3327 4H13.9993C14.7357 4 15.3327 4.59695 15.3327 5.33333V12C15.3327 13.4728 14.1388 14.6667 12.666 14.6667H3.33268C1.85992 14.6667 0.666016 13.4728 0.666016 12V5.33333C0.666016 4.59695 1.26297 4 1.99935 4H4.66602ZM5.99935 4H9.99935C9.99935 3.63181 9.70087 3.33333 9.33268 3.33333H6.66602C6.29783 3.33333 5.99935 3.63181 5.99935 4ZM5.99935 9.33333H2.66602C2.43226 9.33333 2.20787 9.29323 1.99935 9.21953V12C1.99935 12.7364 2.5963 13.3333 3.33268 13.3333H12.666C13.4024 13.3333 13.9993 12.7364 13.9993 12V9.21953C13.7908 9.29323 13.5664 9.33333 13.3327 9.33333H9.99935V10.4C9.99935 10.9155 9.58148 11.3333 9.06602 11.3333H6.93268C6.41722 11.3333 5.99935 10.9155 5.99935 10.4V9.33333ZM7.33268 10H8.66602V9.33333H7.33268V10Z" fill="#3DD598"/>
</svg>
