<svg width="29" height="29" viewBox="0 0 29 29" fill="none" xmlns="http://www.w3.org/2000/svg">
<g clip-path="url(#clip0_12_1149)">
<path d="M13.8721 0.930709L3.06525 6.66769C2.76549 6.82681 2.57812 7.13842 2.57812 7.47789V21.8789C2.57812 22.4606 2.90499 22.9928 3.42367 23.2559L14.0211 28.6309C14.3592 28.8025 14.7589 28.8025 15.0969 28.6309L25.6945 23.2559C26.2131 22.9928 26.54 22.4605 26.54 21.8789V7.47789C26.54 7.13842 26.3526 6.82681 26.0528 6.66769L15.246 0.930709C14.8165 0.702784 14.3017 0.702784 13.8721 0.930709Z" fill="#FFCE94"/>
<path d="M14.5586 28.7602C14.743 28.7602 14.9275 28.7174 15.0965 28.6316L25.694 23.2566C26.2127 22.9935 26.5396 22.4612 26.5396 21.8795V7.47837C26.5396 7.32844 26.5013 7.18496 26.4347 7.05664L14.5586 13.382V28.7602Z" fill="#FCB043"/>
<path d="M14.5591 13.3821L2.68313 7.05664C2.61641 7.18496 2.57812 7.32845 2.57812 7.47837V21.8794C2.57812 22.4612 2.90499 22.9934 3.42367 23.2565L14.0211 28.6315C14.1902 28.7173 14.3746 28.7601 14.559 28.7601V13.3821H14.5591Z" fill="#E2791B"/>
<path d="M18.7925 2.81445L6.77344 9.21521V11.2633C6.77344 11.4599 6.88186 11.6404 7.05529 11.7329L9.14405 12.8462C9.3098 12.9345 9.50986 12.8144 9.50986 12.6266V10.7151L21.5476 4.27706L18.7925 2.81445Z" fill="#DEF2FC"/>
<path d="M16.291 24.6719L19.4974 23.1385C19.908 22.9422 20.1651 22.5232 20.1543 22.0683L20.154 22.0541C20.1451 21.6788 19.7467 21.4419 19.4127 21.6135L16.2911 23.2166V24.6719H16.291Z" fill="#403A46"/>
<path d="M16.291 26.9088L18.0518 26.0909C18.4687 25.8971 18.7313 25.4748 18.7204 25.0151C18.7115 24.6385 18.3108 24.4018 17.9766 24.5758L16.291 25.4533V26.9088Z" fill="#403A46"/>
<path d="M6.77344 9.23438V11.2619C6.77344 11.4585 6.88186 11.639 7.05529 11.7315L9.14405 12.8448C9.3098 12.9331 9.50986 12.813 9.50986 12.6252V10.7137L9.53024 10.7028C8.82277 10.326 7.67367 9.71382 6.77344 9.23438Z" fill="#B6C8CE"/>
</g>
<defs>
<clipPath id="clip0_12_1149">
<rect width="28" height="28" fill="white" transform="translate(0.558594 0.759766)"/>
</clipPath>
</defs>
</svg>
