<svg width="85" height="85" viewBox="0 0 85 85" fill="none" xmlns="http://www.w3.org/2000/svg">
<g id="cancel (2) 1" clip-path="url(#clip0_299_1419)">
<g id="Group">
<path id="Vector" d="M41.2464 36.3691L35.139 81.6381C34.3677 81.6381 33.5964 81.4568 32.8867 81.0942L30.0083 79.6268L2.84767 65.7806C1.10483 64.8929 0 63.0545 0 61.0432V24.7804C0 23.7662 0.280566 22.7965 0.783262 21.9688L36.7877 34.782L41.2464 36.3691Z" fill="#CDBFBA"/>
<path id="Vector_2" d="M41.2459 36.3682L35.1385 81.6372C34.3672 81.6372 33.5959 81.4559 32.8862 81.0933L30.0078 79.6259V36.8677L36.7872 34.7812L41.2459 36.3682Z" fill="#B9ACAC"/>
<path id="Vector_3" d="M70.276 24.7806V61.0432C70.276 63.0545 69.1727 64.8929 67.4284 65.7806L37.3917 81.0942C36.6815 81.4568 35.91 81.6381 35.1387 81.6381V39.4836L44.0125 25.2974L69.4931 21.9688C69.9951 22.7967 70.276 23.7664 70.276 24.7806Z" fill="#CDBFBA"/>
<path id="Vector_4" d="M70.2778 24.7804V61.043C70.2778 63.0543 69.1747 64.8928 67.4303 65.7804L37.393 81.0941C36.6832 81.4566 35.9119 81.6379 35.1406 81.6379V79.6266L62.2996 65.7804C64.0441 64.8928 65.1471 63.0543 65.1471 61.043V24.7804C65.1471 24.5855 65.1368 24.3921 65.1164 24.2007L69.4947 21.9688C69.9973 22.7965 70.2778 23.7662 70.2778 24.7804Z" fill="#B9ACAC"/>
<path id="Vector_5" d="M69.4938 21.968L32.574 38.1753L0.783203 21.968C1.25884 21.1864 1.9312 20.5314 2.75215 20.0918L32.789 3.95545C32.7973 3.95196 32.804 3.94698 32.8121 3.9435C34.2805 3.16356 36.023 3.16704 37.4881 3.95545L67.525 20.0918C68.3458 20.5314 69.0196 21.1865 69.4938 21.968Z" fill="#918B8B"/>
<path id="Vector_6" d="M69.4938 21.9697L35.1397 39.4845L32.5742 38.1762L62.3563 22.9927C63.5197 22.3995 63.5668 20.7296 62.419 20.1068C62.4109 20.1024 62.4026 20.098 62.3944 20.0936L32.5742 4.07355L32.7897 3.95734C32.7982 3.95385 32.8033 3.94871 32.812 3.94539C34.281 3.16561 36.0239 3.16893 37.4878 3.95734L67.5252 20.0937C68.3461 20.5332 69.02 21.1881 69.4938 21.9697Z" fill="#7F7C7C"/>
<path id="Vector_7" d="M66.9396 39.4846C76.9142 39.4846 85.0003 31.3986 85.0003 21.424C85.0003 11.4493 76.9142 3.36328 66.9396 3.36328C56.9649 3.36328 48.8789 11.4493 48.8789 21.424C48.8789 31.3986 56.9649 39.4846 66.9396 39.4846Z" fill="#FD4755"/>
<path id="Vector_8" d="M85.0008 21.4236C85.0008 31.3978 76.9147 39.484 66.9404 39.484C66.0699 39.484 65.213 39.4224 64.375 39.301C73.135 38.0577 79.8699 30.5274 79.8699 21.4236C79.8699 12.3198 73.1348 4.78969 64.375 3.54623C65.213 3.42487 66.0699 3.36328 66.9404 3.36328C76.9147 3.36328 85.0008 11.4494 85.0008 21.4236Z" fill="#FB2B3A"/>
<path id="Vector_9" d="M74.8342 25.4456L71.3195 21.9309C71.0393 21.6507 71.0393 21.1964 71.3195 20.9164L74.8342 17.4016C75.9037 16.3322 75.9037 14.5981 74.8342 13.5287C73.7647 12.4592 72.0307 12.4592 70.9612 13.5287L67.4465 17.0434C67.1663 17.3236 66.7121 17.3236 66.432 17.0434L62.9173 13.5287C61.8478 12.4592 60.1138 12.4592 59.0443 13.5287C57.9748 14.5981 57.9748 16.3322 59.0443 17.4016L62.559 20.9164C62.8392 21.1966 62.8392 21.6508 62.559 21.9309L59.0443 25.4456C57.9748 26.5151 57.9748 28.2491 59.0443 29.3186C60.1138 30.3881 61.8478 30.3881 62.9173 29.3186L66.432 25.8039C66.7122 25.5236 67.1664 25.5236 67.4465 25.8039L70.9612 29.3186C72.0307 30.3881 73.7647 30.3881 74.8342 29.3186C75.9037 28.2489 75.9037 26.5151 74.8342 25.4456Z" fill="#F3F0F3"/>
</g>
</g>
<defs>
<clipPath id="clip0_299_1419">
<rect width="85" height="85" fill="white"/>
</clipPath>
</defs>
</svg>
