<svg width="29" height="29" viewBox="0 0 29 29" fill="none" xmlns="http://www.w3.org/2000/svg">
<path d="M24.2773 16.7939V8.63455C24.2777 8.55746 24.2576 8.48166 24.2192 8.41482C24.1808 8.34798 24.1254 8.29247 24.0586 8.25393L13.4492 2.12893C13.3827 2.09053 13.3073 2.07031 13.2305 2.07031C13.1537 2.07031 13.0782 2.09053 13.0117 2.12893L2.40235 8.25393C2.33558 8.29247 2.28019 8.34798 2.24178 8.41482C2.20336 8.48166 2.18329 8.55746 2.1836 8.63455V20.8846C2.18329 20.9616 2.20336 21.0374 2.24178 21.1043C2.28019 21.1711 2.33558 21.2266 2.40235 21.2652L13.0117 27.3902C13.0782 27.4286 13.1537 27.4488 13.2305 27.4488C13.3073 27.4488 13.3827 27.4286 13.4492 27.3902L17.4348 25.0889C17.9316 25.785 18.5819 26.3573 19.3354 26.7618C20.0888 27.1662 20.9252 27.3919 21.7798 27.4213C22.6345 27.4507 23.4844 27.2831 24.2639 26.9314C25.0433 26.5797 25.7314 26.0534 26.2749 25.3932C26.8184 24.733 27.2026 23.9566 27.398 23.124C27.5933 22.2915 27.5944 21.4252 27.4013 20.5921C27.2082 19.7591 26.826 18.9817 26.2843 18.32C25.7426 17.6583 25.0559 17.1302 24.2773 16.7764V16.7939ZM13.2305 3.01268L22.9648 8.63455L18.0823 11.4521L9.0436 5.43205L13.2305 3.01268ZM13.2305 14.2564L3.4961 8.63455L8.19922 5.91768L17.2336 11.9421L13.2305 14.2564ZM16.4023 21.8689C16.4034 22.7253 16.6026 23.5698 16.9842 24.3364L13.668 26.2527V15.0133L17.6055 12.7252V16.1333C17.6055 16.2493 17.6516 16.3606 17.7336 16.4427C17.8157 16.5247 17.9269 16.5708 18.043 16.5708C18.159 16.5708 18.2703 16.5247 18.3523 16.4427C18.4344 16.3606 18.4805 16.2493 18.4805 16.1333V12.2221L23.3805 9.39143V16.4833C22.9171 16.3567 22.439 16.2919 21.9586 16.2908C20.4833 16.2977 19.0708 16.8884 18.0297 17.9336C16.9885 18.9788 16.4035 20.3937 16.4023 21.8689ZM24.7148 20.1189L21.6961 24.1396C21.6567 24.1922 21.606 24.2352 21.5476 24.2655C21.4893 24.2958 21.4249 24.3126 21.3592 24.3146C21.296 24.3146 21.2336 24.3009 21.1762 24.2744C21.1188 24.248 21.0678 24.2095 21.0267 24.1614L19.2461 22.0702C19.1713 21.9814 19.1347 21.8666 19.1446 21.7509C19.1544 21.6352 19.2098 21.5281 19.2986 21.4533C19.3874 21.3785 19.5022 21.3419 19.6179 21.3518C19.7336 21.3616 19.8406 21.417 19.9155 21.5058L21.3373 23.1771L24.0586 19.5983C24.0923 19.5498 24.1354 19.5085 24.1855 19.4771C24.2355 19.4457 24.2914 19.4247 24.3497 19.4155C24.4081 19.4063 24.4677 19.4089 24.525 19.4234C24.5823 19.4378 24.636 19.4637 24.6831 19.4995C24.7301 19.5352 24.7694 19.5802 24.7985 19.6315C24.8277 19.6829 24.8462 19.7397 24.8528 19.7984C24.8595 19.8571 24.8542 19.9165 24.8372 19.9731C24.8203 20.0297 24.792 20.0823 24.7542 20.1277L24.7148 20.1189Z" fill="#ED4650"/>
</svg>
