<svg width="49" height="47" viewBox="0 0 49 47" fill="none" xmlns="http://www.w3.org/2000/svg">
<ellipse cx="16.7399" cy="16.7365" rx="16.7399" ry="16.7365" transform="matrix(0.723426 0.690401 -0.720007 0.693967 24.3652 0.589844)" fill="#ED4650"/>
<path d="M22.3352 22.5652C22.5524 22.6569 22.7784 22.7152 23.0043 22.7652V30.6986C22.8652 30.6652 22.7263 30.6152 22.5959 30.5569L17.3826 28.3319C16.4442 27.9319 15.8359 27.0402 15.8359 26.0485V20.4986C15.8359 20.2736 15.8707 20.0486 15.9315 19.8402L22.3352 22.5652ZM30.72 18.7402C30.4941 18.5236 30.2334 18.3402 29.9293 18.2152L24.716 15.9902C24.0382 15.6986 23.2737 15.6986 22.5959 15.9902L17.3826 18.2152C17.0785 18.3402 16.8178 18.5236 16.5919 18.7402L22.8565 21.4152C23.3605 21.6319 23.9427 21.6319 24.4554 21.4152L30.72 18.7402ZM25.0105 26.7536C25.3303 24.6027 27.2957 22.9361 29.5591 22.8602C30.1117 22.8419 30.6383 22.9094 31.1319 23.0561C31.303 23.1069 31.4759 22.9952 31.4759 22.8236V20.4986C31.4759 20.2736 31.4412 20.0486 31.3804 19.8402L24.9767 22.5652C24.7594 22.6486 24.5335 22.7152 24.3076 22.7652V30.6986C24.3241 30.7086 24.3241 30.7086 24.3406 30.7186L25.5606 30.1927C25.7057 30.1302 25.7534 29.9611 25.6692 29.8311C25.1009 28.9544 24.8402 27.8969 25.0105 26.7536ZM33.2137 27.4402C33.2137 29.2819 31.6584 30.7736 29.7382 30.7736C27.8179 30.7736 26.2626 29.2819 26.2626 27.4402C26.2626 25.5986 27.8179 24.1069 29.7382 24.1069C31.6584 24.1069 33.2137 25.5986 33.2137 27.4402ZM31.1284 26.4486C30.9633 26.2902 30.6853 26.2902 30.5202 26.4486L29.3732 27.5402L28.9561 27.1486C28.791 26.9819 28.513 26.9819 28.348 27.1486C28.1742 27.3069 28.1742 27.5736 28.348 27.7319L29.0691 28.4319C29.1473 28.5069 29.2602 28.5485 29.3732 28.5485C29.4948 28.5485 29.5991 28.5069 29.686 28.4319L31.1284 27.0402C31.3021 26.8736 31.3021 26.6152 31.1284 26.4486Z" fill="white"/>
</svg>
