<svg width="25" height="27" viewBox="0 0 25 27" fill="none" xmlns="http://www.w3.org/2000/svg">
<path d="M24.2536 7.05924L12.8786 0.934235C12.7832 0.882542 12.6765 0.855469 12.568 0.855469C12.4595 0.855469 12.3527 0.882542 12.2574 0.934235L5.14361 4.76236L0.873612 7.05924C0.76892 7.11495 0.68141 7.19817 0.620508 7.29993C0.559605 7.40169 0.527616 7.51814 0.527987 7.63674V19.8867C0.527987 20.0967 0.488613 20.3242 0.497363 20.5255C0.496043 21.5575 0.780622 22.5698 1.31954 23.45C1.85845 24.3301 2.63064 25.0438 3.55045 25.5119C4.47026 25.98 5.50175 26.1841 6.5305 26.1017C7.55926 26.0192 8.54507 25.6534 9.37861 25.0449L12.253 26.5892C12.3484 26.6409 12.4551 26.668 12.5636 26.668C12.6721 26.668 12.7789 26.6409 12.8742 26.5892L24.2492 20.4642C24.3547 20.4091 24.4431 20.3261 24.5048 20.2243C24.5665 20.1225 24.5992 20.0058 24.5992 19.8867V7.63674C24.5996 7.51814 24.5676 7.40169 24.5067 7.29993C24.4458 7.19817 24.3583 7.11495 24.2536 7.05924ZM12.5592 2.25549L22.5561 7.63674L19.9574 9.03674L10.3324 3.46736L12.5592 2.25549ZM8.11861 21.8467C8.24045 21.9703 8.30875 22.1369 8.30875 22.3105C8.30875 22.484 8.24045 22.6506 8.11861 22.7742C7.99486 22.8961 7.82857 22.9652 7.65486 22.9667C7.56868 22.9669 7.48331 22.95 7.40371 22.9169C7.32411 22.8839 7.25185 22.8354 7.19111 22.7742L6.08861 21.6761L4.99049 22.7742C4.92975 22.8354 4.85749 22.8839 4.77789 22.9169C4.69829 22.95 4.61292 22.9669 4.52674 22.9667C4.35303 22.9652 4.18674 22.8961 4.06299 22.7742C3.94115 22.6506 3.87285 22.484 3.87285 22.3105C3.87285 22.1369 3.94115 21.9703 4.06299 21.8467L5.16111 20.7617L4.06299 19.6636C3.94707 19.5392 3.88396 19.3747 3.88696 19.2047C3.88996 19.0346 3.95883 18.8724 4.07907 18.7522C4.1993 18.632 4.36152 18.5631 4.53153 18.5601C4.70154 18.5571 4.86608 18.6202 4.99049 18.7361L6.08861 19.8342L7.19111 18.7361C7.31551 18.6202 7.48006 18.5571 7.65007 18.5601C7.82008 18.5631 7.9823 18.632 8.10253 18.7522C8.22277 18.8724 8.29164 19.0346 8.29464 19.2047C8.29764 19.3747 8.23453 19.5392 8.11861 19.6636L7.02049 20.7617L8.11861 21.8467ZM11.9074 24.9092L10.3717 24.0999C11.2555 22.9606 11.6646 21.5239 11.5136 20.09C11.3625 18.6561 10.6629 17.3361 9.56115 16.4061C8.45936 15.4761 7.04068 15.008 5.60178 15.0998C4.16287 15.1916 2.81517 15.8361 1.84049 16.8986V8.73486L11.903 14.1555L11.9074 24.9092ZM12.5592 13.018L2.56674 7.63674L5.39736 6.11424L15.0224 11.6836L12.5592 13.018ZM23.2867 19.493L13.2242 24.9136V14.1555L15.8886 12.7205V17.0955C15.8903 17.2139 15.9238 17.3297 15.9856 17.4308C16.0474 17.5318 16.1352 17.6144 16.2398 17.6699C16.3445 17.7253 16.4622 17.7517 16.5805 17.746C16.6988 17.7404 16.8134 17.7031 16.9124 17.638L20.163 15.4505C20.2481 15.3902 20.3173 15.3101 20.3645 15.2171C20.4118 15.1241 20.4357 15.021 20.4342 14.9167V10.2617L23.2692 8.73486L23.2867 19.493Z" fill="#ED4650"/>
</svg>
