<svg width="25" height="25" viewBox="0 0 25 25" fill="none" xmlns="http://www.w3.org/2000/svg">
<path d="M12.6605 11.37C12.5605 11.36 12.4405 11.36 12.3305 11.37C9.95055 11.29 8.06055 9.34 8.06055 6.94C8.06055 4.49 10.0405 2.5 12.5005 2.5C14.9505 2.5 16.9405 4.49 16.9405 6.94C16.9305 9.34 15.0405 11.29 12.6605 11.37Z" stroke="#ED4650" stroke-width="1.5" stroke-linecap="round" stroke-linejoin="round"/>
<path d="M7.6607 15.06C5.2407 16.68 5.2407 19.32 7.6607 20.93C10.4107 22.77 14.9207 22.77 17.6707 20.93C20.0907 19.31 20.0907 16.67 17.6707 15.06C14.9307 13.23 10.4207 13.23 7.6607 15.06Z" stroke="#ED4650" stroke-width="1.5" stroke-linecap="round" stroke-linejoin="round"/>
</svg>
