<svg width="24" height="25" viewBox="0 0 24 25" fill="none" xmlns="http://www.w3.org/2000/svg">
<path d="M22 8.81456C22 6.35996 20.0102 4.37012 17.5556 4.37012H6.44444C3.98984 4.37012 2 6.35996 2 8.81456C2 9.35785 2.31156 9.853 2.80135 10.0881L3.28872 10.322C5.00702 11.1468 5.00702 13.5934 3.28872 14.4182L2.80135 14.6521C2.31156 14.8872 2 15.3824 2 15.9257C2 18.3803 3.98984 20.3701 6.44444 20.3701H17.5556C20.0102 20.3701 22 18.3803 22 15.9257C22 15.3824 21.6884 14.8872 21.1986 14.6521L20.7113 14.4182C18.993 13.5934 18.993 11.1468 20.7113 10.322L21.1986 10.0881C21.6884 9.853 22 9.35785 22 8.81456Z" stroke="#ED4650" stroke-width="1.5"/>
<path d="M10 4.37012L10 20.3701" stroke="#ED4650" stroke-width="1.5" stroke-linecap="round" stroke-dasharray="2 3"/>
</svg>
