<svg width="83" height="83" viewBox="0 0 83 83" fill="none" xmlns="http://www.w3.org/2000/svg">
<g id="reward 1" clip-path="url(#clip0_175_13562)">
<g id="Layer_x0020_1">
<path id="Vector" fill-rule="evenodd" clip-rule="evenodd" d="M41.4762 68.4621C26.5974 68.4621 14.4902 56.3549 14.4902 41.4762C14.4902 26.5974 26.5974 14.4902 41.4762 14.4902C56.3549 14.4902 68.4621 26.5974 68.4621 41.4762C68.4621 56.3549 56.3549 68.4621 41.4762 68.4621Z" fill="#FFC107"/>
<g id="Group">
<path id="Vector_2" fill-rule="evenodd" clip-rule="evenodd" d="M41.4751 10.4054C40.7944 10.4054 40.2109 9.87053 40.2109 9.14118V1.26421C40.2109 0.58348 40.7944 0 41.4751 0C42.2045 0 42.7394 0.58348 42.7394 1.26421V9.14118C42.7394 9.87053 42.2045 10.4054 41.4751 10.4054Z" fill="#FF9D05"/>
<path id="Vector_3" fill-rule="evenodd" clip-rule="evenodd" d="M57.6669 14.7325C57.4238 14.7325 57.2293 14.6839 57.0348 14.5866C56.4027 14.2463 56.2082 13.4683 56.5485 12.8848L60.5356 6.02891C60.876 5.39681 61.654 5.20231 62.2375 5.54268C62.8209 5.88304 63.0641 6.66101 62.6751 7.29312L58.7366 14.1004C58.4935 14.538 58.1045 14.7325 57.6669 14.7325Z" fill="#FF9D05"/>
<path id="Vector_4" fill-rule="evenodd" clip-rule="evenodd" d="M69.4833 26.5971C69.0457 26.5971 68.6081 26.354 68.4136 25.965C68.0732 25.3329 68.2677 24.6035 68.8512 24.2146L75.7071 20.2761C76.2906 19.9357 77.0685 20.1302 77.4089 20.7623C77.7493 21.3458 77.5548 22.1238 76.9713 22.4641L70.1154 26.4026C69.9209 26.5485 69.7264 26.5971 69.4833 26.5971Z" fill="#FF9D05"/>
<path id="Vector_5" fill-rule="evenodd" clip-rule="evenodd" d="M81.7367 42.7403H73.8111C73.1304 42.7403 72.5469 42.2055 72.5469 41.4761C72.5469 40.7954 73.1304 40.2119 73.8111 40.2119H81.7367C82.4174 40.2119 83.0009 40.7954 83.0009 41.4761C83.0009 42.2055 82.4174 42.7403 81.7367 42.7403Z" fill="#FF9D05"/>
<path id="Vector_6" fill-rule="evenodd" clip-rule="evenodd" d="M76.3392 62.8696C76.0961 62.8696 75.9016 62.8209 75.7071 62.6751L68.8512 58.7366C68.2677 58.3962 68.0732 57.6182 68.4136 57.0348C68.7539 56.4027 69.5319 56.2082 70.1154 56.5485L76.9713 60.5356C77.5548 60.876 77.7493 61.654 77.4089 62.2375C77.2144 62.6265 76.7768 62.8696 76.3392 62.8696Z" fill="#FF9D05"/>
<path id="Vector_7" fill-rule="evenodd" clip-rule="evenodd" d="M61.6054 77.6024C61.1677 77.6024 60.7301 77.3593 60.5356 76.9703L56.5485 70.1144C56.2082 69.5309 56.4027 68.753 57.0348 68.4126C57.6182 68.0722 58.3962 68.2667 58.7366 68.8502L62.6751 75.7061C63.0641 76.2896 62.8209 77.0675 62.2375 77.4079C62.043 77.5538 61.7999 77.6024 61.6054 77.6024Z" fill="#FF9D05"/>
<path id="Vector_8" fill-rule="evenodd" clip-rule="evenodd" d="M41.4751 82.9999C40.7944 82.9999 40.2109 82.4164 40.2109 81.7357V73.8101C40.2109 73.1294 40.7944 72.5459 41.4751 72.5459C42.2045 72.5459 42.7394 73.1294 42.7394 73.8101V81.7357C42.7394 82.4164 42.2045 82.9999 41.4751 82.9999Z" fill="#FF9D05"/>
<path id="Vector_9" fill-rule="evenodd" clip-rule="evenodd" d="M21.3934 77.6025C21.1503 77.6025 20.9558 77.5539 20.7613 77.408C20.1292 77.0677 19.9347 76.2897 20.2751 75.7062L24.2136 68.8503C24.6026 68.2669 25.3319 68.0237 25.964 68.4127C26.5475 68.7531 26.742 69.5311 26.4016 70.1145L22.4631 76.9704C22.22 77.3594 21.831 77.6025 21.3934 77.6025Z" fill="#FF9D05"/>
<path id="Vector_10" fill-rule="evenodd" clip-rule="evenodd" d="M6.66101 62.8696C6.2234 62.8696 5.78579 62.6265 5.54268 62.2375C5.20231 61.654 5.39681 60.876 6.02891 60.5356L12.8848 56.5485C13.4683 56.2082 14.2463 56.4027 14.5866 57.0348C14.927 57.6182 14.7325 58.3962 14.149 58.7366L7.29312 62.6751C7.09862 62.8209 6.85551 62.8696 6.66101 62.8696Z" fill="#FF9D05"/>
<path id="Vector_11" fill-rule="evenodd" clip-rule="evenodd" d="M9.14118 42.7403H1.26421C0.58348 42.7403 0 42.2055 0 41.4761C0 40.7954 0.58348 40.2119 1.26421 40.2119H9.14118C9.87053 40.2119 10.4054 40.7954 10.4054 41.4761C10.4054 42.2055 9.87053 42.7403 9.14118 42.7403Z" fill="#FF9D05"/>
<path id="Vector_12" fill-rule="evenodd" clip-rule="evenodd" d="M13.5169 26.5971C13.2738 26.5971 13.0793 26.5485 12.8848 26.4026L6.02891 22.4641C5.39681 22.1238 5.20231 21.3458 5.54268 20.7623C5.88304 20.1302 6.66101 19.9357 7.29312 20.2761L14.149 24.2146C14.7325 24.6035 14.927 25.3329 14.5866 25.965C14.3435 26.354 13.9059 26.5971 13.5169 26.5971Z" fill="#FF9D05"/>
<path id="Vector_13" fill-rule="evenodd" clip-rule="evenodd" d="M25.3319 14.7325C24.8943 14.7325 24.4567 14.538 24.2136 14.149L20.2751 7.29312C19.9347 6.66101 20.1292 5.88304 20.7613 5.54268C21.3448 5.20231 22.1228 5.39681 22.4631 6.02891L26.4016 12.8848C26.742 13.4683 26.5475 14.2463 25.964 14.5866C25.7695 14.6839 25.5264 14.7325 25.3319 14.7325Z" fill="#FF9D05"/>
</g>
<path id="Vector_14" fill-rule="evenodd" clip-rule="evenodd" d="M50.6172 56.7921C50.4713 56.7921 50.3254 56.7921 50.1795 56.6948L41.476 53.3398L32.821 56.6948C32.432 56.8893 31.9458 56.7921 31.6054 56.549C31.2651 56.3058 31.0706 55.9169 31.1192 55.4792L31.6541 46.1922L25.722 38.9959C25.4789 38.6556 25.3817 38.218 25.5275 37.7804C25.6734 37.3914 25.9651 37.051 26.4027 36.9538L35.3981 34.6198L40.4549 26.7429C40.6494 26.4025 41.087 26.208 41.476 26.208C41.9136 26.208 42.3026 26.4025 42.5457 26.7429L47.6025 34.6198L56.5978 36.9538C56.9868 37.051 57.3272 37.3914 57.473 37.7804C57.6189 38.218 57.5217 38.6556 57.2299 38.9959L51.3465 46.1922L51.8814 55.4792C51.8814 55.9169 51.6869 56.3058 51.3465 56.549C51.152 56.7435 50.8603 56.7921 50.6172 56.7921Z" fill="white"/>
</g>
</g>
<defs>
<clipPath id="clip0_175_13562">
<rect width="83" height="83" fill="white"/>
</clipPath>
</defs>
</svg>
