<svg width="17" height="17" viewBox="0 0 17 17" fill="none" xmlns="http://www.w3.org/2000/svg">
<g clip-path="url(#clip0_12_1120)">
<path d="M16.1374 5.48372C15.7694 5.48372 15.4707 5.18572 15.4707 4.81706V2.15039C15.4707 1.78239 15.1714 1.48372 14.804 1.48372H12.1374C11.7694 1.48372 11.4707 1.18572 11.4707 0.817057C11.4707 0.448391 11.7694 0.150391 12.1374 0.150391H14.804C15.9067 0.150391 16.804 1.04772 16.804 2.15039V4.81706C16.804 5.18572 16.5054 5.48372 16.1374 5.48372Z" fill="white"/>
<path d="M14.804 16.1497H12.1374C11.7694 16.1497 11.4707 15.8517 11.4707 15.4831C11.4707 15.1144 11.7694 14.8164 12.1374 14.8164H14.804C15.1714 14.8164 15.4707 14.5177 15.4707 14.1497V11.4831C15.4707 11.1144 15.7694 10.8164 16.1374 10.8164C16.5054 10.8164 16.804 11.1144 16.804 11.4831V14.1497C16.804 15.2524 15.9067 16.1497 14.804 16.1497Z" fill="white"/>
<path d="M5.47135 16.1497H2.80469C1.70202 16.1497 0.804688 15.2524 0.804688 14.1497V11.4831C0.804688 11.1144 1.10335 10.8164 1.47135 10.8164C1.83935 10.8164 2.13802 11.1144 2.13802 11.4831V14.1497C2.13802 14.5177 2.43735 14.8164 2.80469 14.8164H5.47135C5.83935 14.8164 6.13802 15.1144 6.13802 15.4831C6.13802 15.8517 5.83935 16.1497 5.47135 16.1497Z" fill="white"/>
<path d="M1.47135 5.48372C1.10335 5.48372 0.804688 5.18572 0.804688 4.81706V2.15039C0.804688 1.04772 1.70202 0.150391 2.80469 0.150391H5.47135C5.83935 0.150391 6.13802 0.448391 6.13802 0.817057C6.13802 1.18572 5.83935 1.48372 5.47135 1.48372H2.80469C2.43735 1.48372 2.13802 1.78239 2.13802 2.15039V4.81706C2.13802 5.18572 1.83935 5.48372 1.47135 5.48372Z" fill="white"/>
<path d="M12.8053 7.48438C12.4373 7.48438 12.1387 7.18638 12.1387 6.81771V4.81771H5.47201V6.81771C5.47201 7.18638 5.17334 7.48438 4.80534 7.48438C4.43734 7.48438 4.13867 7.18638 4.13867 6.81771V4.81771C4.13867 4.08237 4.73667 3.48438 5.47201 3.48438H12.1387C12.874 3.48438 13.472 4.08237 13.472 4.81771V6.81771C13.472 7.18638 13.1733 7.48438 12.8053 7.48438Z" fill="white"/>
<path d="M14.8047 9.48307C14.8047 9.85174 14.506 10.1497 14.138 10.1497H13.4714V11.4831C13.4714 12.2184 12.8734 12.8164 12.138 12.8164H5.47135C4.73602 12.8164 4.13802 12.2184 4.13802 11.4831V10.1497H3.47135C3.10335 10.1497 2.80469 9.85174 2.80469 9.48307C2.80469 9.11441 3.10335 8.81641 3.47135 8.81641H14.138C14.506 8.81641 14.8047 9.11441 14.8047 9.48307Z" fill="white"/>
</g>
<defs>
<clipPath id="clip0_12_1120">
<rect width="16" height="16" fill="white" transform="translate(0.804688 0.150391)"/>
</clipPath>
</defs>
</svg>
