<svg width="21" height="21" viewBox="0 0 21 21" fill="none" xmlns="http://www.w3.org/2000/svg">
<path fill-rule="evenodd" clip-rule="evenodd" d="M9.23302 1.81641C13.708 1.81641 17.348 5.45641 17.348 9.93141C17.348 12.0427 16.5378 13.9683 15.2119 15.4135L17.8209 18.017C18.065 18.2612 18.0659 18.6562 17.8217 18.9003C17.7 19.0237 17.5392 19.0845 17.3792 19.0845C17.22 19.0845 17.06 19.0237 16.9375 18.902L14.2971 16.2689C12.9081 17.3813 11.1469 18.0472 9.23302 18.0472C4.75802 18.0472 1.11719 14.4064 1.11719 9.93141C1.11719 5.45641 4.75802 1.81641 9.23302 1.81641ZM9.23302 3.06641C5.44719 3.06641 2.36719 6.14557 2.36719 9.93141C2.36719 13.7172 5.44719 16.7972 9.23302 16.7972C13.018 16.7972 16.098 13.7172 16.098 9.93141C16.098 6.14557 13.018 3.06641 9.23302 3.06641Z" fill="#8C8C8C"/>
</svg>
