<svg width="24" height="24" viewBox="0 0 24 24" fill="none" xmlns="http://www.w3.org/2000/svg">
<path d="M5.93237 5.38691L5.75001 6.1144L5.93237 5.38691ZM9.30692 3.43861L8.58572 3.23279L9.30692 3.43861ZM3.23886 10.0522L3.77771 9.53053L3.23886 10.0522ZM3.23886 13.9488L2.70001 13.4271H2.70001L3.23886 13.9488ZM5.93237 18.6141L6.11472 19.3416L5.93237 18.6141ZM9.30692 20.5624L8.58572 20.7682L9.30692 20.5624ZM14.6939 20.5624L15.4151 20.7682L14.6939 20.5624ZM18.0685 18.6141L18.2509 17.8866L18.0685 18.6141ZM20.762 13.9488L20.2232 14.4705V14.4705L20.762 13.9488ZM20.762 10.0522L20.2232 9.53053V9.53053L20.762 10.0522ZM18.0685 5.38691L17.8861 4.65942L18.0685 5.38691ZM14.6939 3.43861L15.4151 3.23279L14.6939 3.43861ZM5.75001 6.1144C7.60892 6.58036 9.50221 5.48727 10.0281 3.64443L8.58572 3.23279C8.28195 4.29719 7.18841 4.92855 6.11472 4.65942L5.75001 6.1144ZM3.77771 9.53053C2.34244 8.048 3.74847 5.61269 5.75001 6.1144L6.11472 4.65942C2.64939 3.79079 0.215087 8.00712 2.70001 10.5739L3.77771 9.53053ZM3.77771 14.4705C5.11069 13.0936 5.11069 10.9074 3.77771 9.53053L2.70001 10.5739C3.46993 11.3691 3.46992 12.6319 2.70001 13.4271L3.77771 14.4705ZM5.75001 17.8866C3.74847 18.3883 2.34244 15.953 3.77771 14.4705L2.70001 13.4271C0.215086 15.9939 2.64939 20.2102 6.11472 19.3416L5.75001 17.8866ZM10.0281 20.3566C9.50221 18.5137 7.60892 17.4207 5.75001 17.8866L6.11472 19.3416C7.18841 19.0725 8.28195 19.7038 8.58572 20.7682L10.0281 20.3566ZM13.9727 20.3566C13.4065 22.3408 10.5944 22.3408 10.0281 20.3566L8.58572 20.7682C9.56613 24.2036 14.4347 24.2036 15.4151 20.7682L13.9727 20.3566ZM18.2509 17.8866C16.3919 17.4207 14.4987 18.5137 13.9727 20.3566L15.4151 20.7682C15.7189 19.7038 16.8125 19.0725 17.8861 19.3416L18.2509 17.8866ZM20.2232 14.4705C21.6584 15.953 20.2524 18.3883 18.2509 17.8866L17.8861 19.3416C21.3515 20.2102 23.7858 15.9939 21.3009 13.4271L20.2232 14.4705ZM20.2232 9.53053C18.8902 10.9074 18.8902 13.0936 20.2232 14.4705L21.3009 13.4271C20.5309 12.6319 20.5309 11.3691 21.3009 10.5739L20.2232 9.53053ZM18.2509 6.1144C20.2524 5.61269 21.6584 8.048 20.2232 9.53053L21.3009 10.5739C23.7858 8.00712 21.3515 3.79079 17.8861 4.65942L18.2509 6.1144ZM13.9727 3.64443C14.4987 5.48727 16.3919 6.58036 18.2509 6.1144L17.8861 4.65942C16.8125 4.92855 15.7189 4.29719 15.4151 3.23279L13.9727 3.64443ZM15.4151 3.23279C14.4347 -0.202596 9.56613 -0.202595 8.58572 3.23279L10.0281 3.64443C10.5944 1.66019 13.4065 1.66019 13.9727 3.64443L15.4151 3.23279ZM8.25043 12.0005C8.25043 14.0716 9.92937 15.7505 12.0004 15.7505V14.2505C10.7578 14.2505 9.75043 13.2431 9.75043 12.0005H8.25043ZM12.0004 15.7505C14.0715 15.7505 15.7504 14.0716 15.7504 12.0005H14.2504C14.2504 13.2431 13.2431 14.2505 12.0004 14.2505V15.7505ZM15.7504 12.0005C15.7504 9.92944 14.0715 8.2505 12.0004 8.2505V9.7505C13.2431 9.7505 14.2504 10.7579 14.2504 12.0005H15.7504ZM12.0004 8.2505C9.92937 8.2505 8.25043 9.92944 8.25043 12.0005H9.75043C9.75043 10.7579 10.7578 9.7505 12.0004 9.7505V8.2505Z" fill="#ED4650"/>
</svg>
