<svg width="25" height="25" viewBox="0 0 25 25" fill="none" xmlns="http://www.w3.org/2000/svg">
<path d="M10.6249 2.38094L5.63492 4.26094C4.48492 4.69094 3.54492 6.05094 3.54492 7.27094V14.7009C3.54492 15.8809 4.32492 17.4309 5.27492 18.1409L9.57492 21.3509C10.9849 22.4109 13.3049 22.4109 14.7149 21.3509L19.0149 18.1409C19.9649 17.4309 20.7449 15.8809 20.7449 14.7009V7.27094C20.7449 6.04094 19.8049 4.68094 18.6549 4.25094L13.6649 2.38094C12.8149 2.07094 11.4549 2.07094 10.6249 2.38094Z" stroke="#ED4650" stroke-width="1.5" stroke-linecap="round" stroke-linejoin="round"/>
<path d="M12.1348 12.6504C13.2393 12.6504 14.1348 11.755 14.1348 10.6504C14.1348 9.54582 13.2393 8.65039 12.1348 8.65039C11.0302 8.65039 10.1348 9.54582 10.1348 10.6504C10.1348 11.755 11.0302 12.6504 12.1348 12.6504Z" stroke="#ED4650" stroke-width="1.5" stroke-miterlimit="10" stroke-linecap="round" stroke-linejoin="round"/>
<path d="M12.1348 12.6504V15.6504" stroke="#ED4650" stroke-width="1.5" stroke-miterlimit="10" stroke-linecap="round" stroke-linejoin="round"/>
</svg>
