<svg width="25" height="25" viewBox="0 0 25 25" fill="none" xmlns="http://www.w3.org/2000/svg">
<path d="M8.77344 12.1504C8.77344 12.2498 8.73393 12.3452 8.6636 12.4156C8.59328 12.4859 8.49789 12.5254 8.39844 12.5254C8.29898 12.5254 8.2036 12.4859 8.13327 12.4156C8.06295 12.3452 8.02344 12.2498 8.02344 12.1504C8.02344 12.0509 8.06295 11.9556 8.13327 11.8852C8.2036 11.8149 8.29898 11.7754 8.39844 11.7754C8.49789 11.7754 8.59328 11.8149 8.6636 11.8852C8.73393 11.9556 8.77344 12.0509 8.77344 12.1504ZM8.77344 12.1504H8.39844M12.5234 12.1504C12.5234 12.2498 12.4839 12.3452 12.4136 12.4156C12.3433 12.4859 12.2479 12.5254 12.1484 12.5254C12.049 12.5254 11.9536 12.4859 11.8833 12.4156C11.8129 12.3452 11.7734 12.2498 11.7734 12.1504C11.7734 12.0509 11.8129 11.9556 11.8833 11.8852C11.9536 11.8149 12.049 11.7754 12.1484 11.7754C12.2479 11.7754 12.3433 11.8149 12.4136 11.8852C12.4839 11.9556 12.5234 12.0509 12.5234 12.1504ZM12.5234 12.1504H12.1484M16.2734 12.1504C16.2734 12.2498 16.2339 12.3452 16.1636 12.4156C16.0933 12.4859 15.9979 12.5254 15.8984 12.5254C15.799 12.5254 15.7036 12.4859 15.6333 12.4156C15.5629 12.3452 15.5234 12.2498 15.5234 12.1504C15.5234 12.0509 15.5629 11.9556 15.6333 11.8852C15.7036 11.8149 15.799 11.7754 15.8984 11.7754C15.9979 11.7754 16.0933 11.8149 16.1636 11.8852C16.2339 11.9556 16.2734 12.0509 16.2734 12.1504ZM16.2734 12.1504H15.8984M21.1484 12.1504C21.1484 16.7064 17.1184 20.4004 12.1484 20.4004C11.2856 20.4014 10.4265 20.2881 9.59344 20.0634C8.4192 20.8892 6.98676 21.2645 5.55844 21.1204C5.39963 21.1051 5.24151 21.0834 5.08444 21.0554C5.5773 20.4745 5.91391 19.7776 6.06244 19.0304C6.15244 18.5734 5.92944 18.1294 5.59544 17.8044C4.07844 16.3284 3.14844 14.3394 3.14844 12.1504C3.14844 7.59439 7.17844 3.90039 12.1484 3.90039C17.1184 3.90039 21.1484 7.59439 21.1484 12.1504Z" stroke="#ED4650" stroke-width="1.5" stroke-linecap="round" stroke-linejoin="round"/>
</svg>
