<svg width="21" height="21" viewBox="0 0 21 21" fill="none" xmlns="http://www.w3.org/2000/svg">
<path d="M19.2735 9.08617L15.75 12.1612L16.8055 16.7393C16.8613 16.9786 16.8454 17.2291 16.7597 17.4594C16.6739 17.6898 16.5222 17.8897 16.3235 18.0343C16.1247 18.1788 15.8878 18.2616 15.6422 18.2722C15.3967 18.2828 15.1535 18.2208 14.943 18.094L10.95 15.6721L6.96564 18.094C6.75515 18.2208 6.51193 18.2828 6.2664 18.2722C6.02087 18.2616 5.78392 18.1788 5.58517 18.0343C5.38642 17.8897 5.23469 17.6898 5.14896 17.4594C5.06323 17.2291 5.04729 16.9786 5.10314 16.7393L6.15705 12.1659L2.63283 9.08617C2.44643 8.92541 2.31164 8.71319 2.24537 8.47613C2.1791 8.23907 2.1843 7.98772 2.26031 7.7536C2.33632 7.51948 2.47976 7.31301 2.67264 7.16009C2.86552 7.00717 3.09926 6.9146 3.34455 6.89399L7.98986 6.49164L9.80314 2.16664C9.89783 1.9397 10.0576 1.74585 10.2622 1.6095C10.4668 1.47315 10.7072 1.40039 10.9531 1.40039C11.199 1.40039 11.4395 1.47315 11.6441 1.6095C11.8487 1.74585 12.0084 1.9397 12.1031 2.16664L13.9219 6.49164L18.5656 6.89399C18.8109 6.9146 19.0447 7.00717 19.2375 7.16009C19.4304 7.31301 19.5739 7.51948 19.6499 7.7536C19.7259 7.98772 19.7311 8.23907 19.6648 8.47613C19.5985 8.71319 19.4638 8.92541 19.2774 9.08617H19.2735Z" fill="#ED4650"/>
</svg>
