<svg width="25" height="20" viewBox="0 0 25 20" fill="none" xmlns="http://www.w3.org/2000/svg">
<path fill-rule="evenodd" clip-rule="evenodd" d="M17.2397 20V11.1341L24.9121 6.70447V15.2309C24.9121 15.4463 24.8046 15.6325 24.6181 15.7401L17.2397 20ZM8.01048 15.5936H1.82008C1.31866 15.5936 0.912109 15.187 0.912109 14.6856C0.912109 14.1842 1.31866 13.7776 1.82008 13.7776H7.97819C9.043 13.7776 9.043 12.0771 7.97819 12.0771H4.27759C3.77617 12.0771 3.36958 11.6705 3.36958 11.1691C3.36958 10.6677 3.77617 10.2612 4.27759 10.2612H7.17194C8.23675 10.2612 8.23675 8.56063 7.17194 8.56063H1.82012C1.3187 8.56063 0.912156 8.15408 0.912156 7.65266C0.912156 7.15123 1.3187 6.74469 1.82012 6.74469H8.03988L15.6428 11.1343V20L8.01048 15.5936ZM8.76316 5.32288L16.4412 9.7558L24.1193 5.32283L16.456 0.898438H11.428C10.9265 0.898438 10.52 1.30498 10.52 1.80641C10.52 2.30783 10.9265 2.71437 11.428 2.71437H12.4905C12.5881 2.71437 12.6699 2.77714 12.6952 2.87141C12.7204 2.96567 12.681 3.06092 12.5965 3.10977L8.76316 5.32288ZM8.32609 0.898438C8.82752 0.898438 9.23406 1.30498 9.23406 1.80641C9.23406 2.30783 8.82752 2.71437 8.32609 2.71437H2.80717C2.30575 2.71437 1.89916 2.30783 1.89916 1.80641C1.89916 1.30498 2.3057 0.898438 2.80717 0.898438H8.32609Z" fill="white"/>
</svg>
