<svg width="21" height="21" viewBox="0 0 21 21" fill="none" xmlns="http://www.w3.org/2000/svg">
<path d="M10.1211 14.9139C9.83221 14.9139 9.59354 14.8126 9.40509 14.6099C9.21576 14.4071 9.12109 14.1707 9.12109 13.9004V3.56255L6.55443 6.1639C6.35443 6.34408 6.12109 6.44003 5.85443 6.45174C5.58776 6.46255 5.34332 6.35535 5.12109 6.13012C4.92109 5.92742 4.82687 5.68508 4.83843 5.40309C4.84909 5.12201 4.94332 4.89138 5.12109 4.7112L9.28776 0.488228C9.39887 0.375616 9.52687 0.290932 9.67176 0.234175C9.81576 0.178319 9.96554 0.150391 10.1211 0.150391C10.2766 0.150391 10.4269 0.178319 10.5718 0.234175C10.7158 0.290932 10.8433 0.375616 10.9544 0.488228L15.1211 4.7112C15.3211 4.9139 15.4158 5.15039 15.4051 5.42066C15.3935 5.69093 15.2989 5.92742 15.1211 6.13012C14.8989 6.33282 14.6544 6.44003 14.3878 6.45174C14.1211 6.46255 13.8878 6.36661 13.6878 6.1639L11.1211 3.56255V13.9004C11.1211 14.1707 11.0269 14.4071 10.8384 14.6099C10.6491 14.8126 10.41 14.9139 10.1211 14.9139ZM2.52109 20.1504C1.85443 20.1504 1.28776 19.9139 0.821094 19.4409C0.354427 18.968 0.121094 18.3936 0.121094 17.718V15.0828C0.121094 14.79 0.21576 14.5477 0.405094 14.3558C0.593538 14.1648 0.832205 14.0693 1.12109 14.0693C1.40998 14.0693 1.64865 14.1648 1.83709 14.3558C2.02643 14.5477 2.12109 14.79 2.12109 15.0828V17.718C2.12109 17.808 2.16554 17.8981 2.25443 17.9882C2.34332 18.0783 2.43221 18.1234 2.52109 18.1234H17.7211C17.81 18.1234 17.8989 18.0783 17.9878 17.9882C18.0766 17.8981 18.1211 17.808 18.1211 17.718V15.0828C18.1211 14.79 18.2153 14.5477 18.4038 14.3558C18.5931 14.1648 18.8322 14.0693 19.1211 14.0693C19.41 14.0693 19.6491 14.1648 19.8384 14.3558C20.0269 14.5477 20.1211 14.79 20.1211 15.0828V17.718C20.1211 18.3936 19.8878 18.968 19.4211 19.4409C18.9544 19.9139 18.3878 20.1504 17.7211 20.1504H2.52109Z" fill="#ED4650"/>
</svg>
