<svg width="15" height="9" viewBox="0 0 15 9" fill="none" xmlns="http://www.w3.org/2000/svg">
<path fill-rule="evenodd" clip-rule="evenodd" d="M0.916016 1.36026C0.916016 1.06425 1.11488 0.780356 1.46887 0.571044C1.82286 0.361731 2.30296 0.244141 2.80358 0.244141H3.66682C4.20792 0.244141 4.67981 0.462156 4.81131 0.772436L5.50656 2.41796C5.5629 2.55115 5.55152 2.69121 5.47385 2.82059C5.39618 2.94998 5.25566 3.06293 5.06991 3.1453L4.25637 3.50618C4.17143 3.54376 4.15318 3.59882 4.17709 3.63714C4.53219 4.20816 5.09293 4.72673 5.82049 5.15694C6.54805 5.58714 7.42505 5.91871 8.39076 6.12868C8.45556 6.14282 8.54805 6.13203 8.61223 6.08181L9.22254 5.60076C9.36185 5.49092 9.55287 5.40784 9.77168 5.36191C9.99049 5.31598 10.2274 5.30925 10.4526 5.34256L13.2355 5.75367C13.7602 5.83142 14.1289 6.11045 14.1289 6.43078V6.94084C14.1289 7.23686 13.9301 7.52075 13.5761 7.73006C13.2221 7.93937 12.742 8.05696 12.2414 8.05696H10.8257C5.35304 8.05696 0.916016 5.43334 0.916016 2.19735V1.36026Z" fill="white"/>
</svg>
