<svg width="24" height="24" viewBox="0 0 24 24" fill="none" xmlns="http://www.w3.org/2000/svg">
<g id="money (4) 1" clip-path="url(#clip0_147_1416)">
<path id="Vector" d="M13.7966 3.84473L11.2715 5.00257L18.3743 9.0766L16.4221 4.8194C15.4301 5.13361 14.343 4.72967 13.7966 3.84473Z" fill="white"/>
<path id="Vector_2" d="M13.8015 3.22394C13.9425 3.15949 14.1096 3.2212 14.1743 3.36237C14.5689 4.22242 15.5895 4.60072 16.4499 4.20704C16.5913 4.14295 16.7583 4.20411 16.8227 4.34546L19.1748 9.47461H20.64L16.9582 1.44581C16.8434 1.19532 16.6379 1.00471 16.3796 0.908758C16.1212 0.812811 15.8409 0.823431 15.591 0.938237L9.25195 3.84506L10.6714 4.65924L13.8015 3.22394Z" fill="white"/>
<path id="Vector_3" d="M5.90997 7.04315L4.51562 9.47424H14.129L8.61316 6.31055C7.98877 7.14221 6.86945 7.44562 5.90997 7.04315Z" fill="white"/>
<path id="Vector_4" d="M5.55361 6.53398C5.63088 6.39922 5.80282 6.35252 5.9374 6.42998C6.75826 6.89983 7.8091 6.61565 8.28042 5.79497C8.31741 5.73015 8.37875 5.68291 8.45071 5.66332C8.52249 5.64409 8.59975 5.6538 8.66421 5.69097L15.2596 9.47393H17.936L7.0895 3.25255C6.85055 3.11559 6.57259 3.07934 6.30654 3.15166C6.04068 3.22362 5.81875 3.39483 5.68179 3.63396L2.33203 9.47393H3.86735L5.55361 6.53398Z" fill="white"/>
<path id="Vector_5" d="M22.125 10.0371H1.875C1.30628 10.0371 0.84375 10.4998 0.84375 11.0684V22.1254C0.84375 22.6939 1.30628 23.1566 1.875 23.1566H22.125C22.6937 23.1566 23.1562 22.6939 23.1562 22.1254V11.0684C23.1562 10.4998 22.6937 10.0371 22.125 10.0371ZM21.6562 19.1254C21.6562 19.2806 21.5303 19.4066 21.375 19.4066C20.2894 19.4066 19.4062 20.2897 19.4062 21.3754C19.4062 21.5306 19.2803 21.6566 19.125 21.6566H4.875C4.71973 21.6566 4.59375 21.5306 4.59375 21.3754C4.59375 20.2897 3.71063 19.4066 2.625 19.4066C2.46973 19.4066 2.34375 19.2806 2.34375 19.1254V14.0684C2.34375 13.9131 2.46973 13.7871 2.625 13.7871C3.71063 13.7871 4.59375 12.904 4.59375 11.8184C4.59375 11.6631 4.71973 11.5371 4.875 11.5371H19.125C19.2803 11.5371 19.4062 11.6631 19.4062 11.8184C19.4062 12.904 20.2894 13.7871 21.375 13.7871C21.5303 13.7871 21.6562 13.9131 21.6562 14.0684V19.1254Z" fill="white"/>
<path id="Vector_6" d="M18.8593 12.0996H5.14069C5.01068 13.2711 4.07776 14.204 2.90625 14.334V18.8597C4.07776 18.9897 5.01068 19.9226 5.14069 21.0941H18.8593C18.9893 19.9226 19.9222 18.9897 21.0938 18.8597V14.334C19.9222 14.204 18.9893 13.2711 18.8593 12.0996ZM12 19.8781C10.1907 19.8781 8.71875 18.4061 8.71875 16.5969C8.71875 14.7876 10.1907 13.3156 12 13.3156C13.8093 13.3156 15.2812 14.7876 15.2812 16.5969C15.2812 18.4061 13.8093 19.8781 12 19.8781Z" fill="white"/>
<path id="Vector_7" d="M12 19.3154C13.5015 19.3154 14.7188 18.0982 14.7188 16.5967C14.7188 15.0952 13.5015 13.8779 12 13.8779C10.4985 13.8779 9.28125 15.0952 9.28125 16.5967C9.28125 18.0982 10.4985 19.3154 12 19.3154Z" fill="white"/>
</g>
<defs>
<clipPath id="clip0_147_1416">
<rect width="24" height="24" fill="white"/>
</clipPath>
</defs>
</svg>
